<?xml version="1.0" standalone="no"?>
<!DOCTYPE svg PUBLIC "-//W3C//DTD SVG 20010904//EN"
 "http://www.w3.org/TR/2001/REC-SVG-20010904/DTD/svg10.dtd">
<svg version="1.0" xmlns="http://www.w3.org/2000/svg"
 width="1920.000000pt" height="1920.000000pt" viewBox="0 0 1920.000000 1920.000000"
 preserveAspectRatio="xMidYMid meet">
<metadata>
Created by potrace 1.14, written by Peter Selinger 2001-2017
</metadata>
<g transform="translate(0.000000,1920.000000) scale(0.100000,-0.100000)"
fill="#000000" stroke="none">
<path d="M10609 17866 c-4 -4 -185 -16 -291 -19 -27 -1 -48 -4 -48 -7 0 -3
-19 -6 -42 -7 -37 -2 -180 -18 -248 -28 -14 -2 -47 -7 -75 -10 -27 -4 -68 -10
-90 -15 -22 -5 -58 -11 -80 -14 -47 -7 -46 -7 -180 -35 -55 -12 -111 -24 -125
-26 -14 -3 -101 -25 -195 -50 -93 -25 -177 -47 -185 -49 -163 -43 -591 -202
-795 -296 -118 -54 -326 -157 -400 -198 -38 -21 -95 -52 -125 -69 -97 -53
-180 -104 -370 -228 -161 -106 -440 -309 -506 -370 -6 -5 -29 -23 -50 -40 -54
-43 -192 -162 -307 -265 -51 -46 -69 -52 -282 -94 -11 -2 -47 -11 -80 -19 -33
-9 -71 -18 -85 -21 -14 -2 -61 -14 -105 -26 -44 -12 -89 -24 -100 -26 -42 -10
-50 -13 -50 -14 0 -1 -7 -3 -15 -5 -85 -17 -487 -148 -685 -222 -200 -76 -209
-79 -247 -96 -21 -9 -53 -23 -70 -31 -35 -15 -99 -44 -213 -96 -80 -36 -322
-157 -375 -187 -19 -11 -62 -35 -95 -53 -147 -81 -432 -261 -595 -376 -177
-125 -447 -341 -615 -494 -136 -122 -462 -458 -545 -560 -19 -24 -40 -48 -45
-54 -6 -6 -28 -33 -50 -61 -22 -27 -42 -52 -45 -55 -10 -9 -176 -234 -211
-285 -19 -27 -37 -52 -40 -55 -3 -3 -8 -9 -10 -15 -2 -5 -39 -63 -82 -128 -42
-65 -77 -120 -77 -123 0 -2 -17 -33 -39 -67 -103 -165 -260 -477 -365 -724
-60 -143 -76 -184 -119 -303 -107 -294 -240 -779 -272 -990 -1 -8 -6 -33 -10
-55 -4 -22 -9 -49 -11 -60 -6 -27 -31 -190 -38 -240 -4 -22 -8 -51 -11 -65 -2
-14 -6 -51 -9 -82 -4 -32 -9 -84 -13 -115 -3 -32 -7 -77 -7 -100 -1 -24 -3
-43 -6 -43 -3 0 -6 -24 -7 -53 -1 -28 -5 -117 -9 -197 -19 -356 -5 -923 31
-1210 2 -19 7 -62 10 -95 7 -65 9 -86 20 -155 3 -25 8 -56 10 -70 7 -49 17
-115 21 -135 2 -11 8 -45 14 -75 5 -30 12 -68 15 -85 8 -42 55 -262 67 -310 5
-22 11 -49 13 -60 2 -11 4 -20 5 -20 1 0 3 -7 5 -15 9 -49 78 -289 113 -395
14 -44 27 -84 28 -90 2 -11 44 -131 74 -210 72 -193 157 -398 228 -544 25 -53
49 -103 52 -111 3 -8 24 -52 48 -97 23 -46 43 -86 43 -90 1 -5 9 -19 19 -33 9
-14 38 -65 64 -114 69 -128 181 -319 238 -404 26 -41 48 -76 48 -79 0 -3 13
-22 30 -43 16 -21 30 -42 30 -47 0 -6 9 -18 20 -28 11 -10 20 -22 20 -27 0 -5
5 -14 10 -21 6 -7 38 -50 72 -97 34 -47 65 -86 70 -88 4 -2 8 -8 8 -13 0 -6
46 -67 102 -137 91 -113 137 -168 259 -309 40 -45 430 -435 480 -478 460 -405
925 -718 1469 -990 80 -40 168 -83 195 -95 28 -12 64 -27 80 -35 419 -187
1015 -358 1460 -420 23 -3 50 -7 60 -9 11 -2 47 -7 80 -10 33 -4 71 -9 85 -11
14 -2 59 -7 100 -10 41 -3 91 -8 110 -10 134 -14 554 -20 745 -10 110 5 249
17 340 30 22 2 60 7 85 9 70 8 133 16 160 21 14 2 39 7 55 9 131 21 173 28
265 47 58 11 112 22 120 23 8 2 29 6 45 9 17 4 39 9 50 12 11 2 40 9 65 16 25
6 52 12 60 14 8 2 44 11 80 20 36 9 72 18 81 20 61 12 520 148 539 160 6 3 18
8 27 10 10 2 37 10 61 19 23 8 42 13 42 9 0 -3 6 -1 13 4 6 6 46 22 88 36 69
24 242 91 314 122 17 7 59 25 95 40 89 37 332 156 421 206 82 46 258 150 274
162 6 4 60 40 120 80 61 39 112 74 115 77 3 3 48 37 100 75 52 39 112 85 135
103 22 18 47 39 55 45 43 33 127 104 146 122 11 11 47 43 79 70 64 55 80 69
178 164 l66 65 -7 -70 c-16 -164 -6 -537 18 -598 5 -13 7 -26 5 -28 -11 -11
95 -337 119 -368 7 -8 18 -28 25 -45 20 -46 134 -214 188 -275 206 -235 431
-375 699 -434 98 -22 190 -30 319 -30 157 1 310 15 429 40 11 3 39 7 61 10 21
4 57 13 78 20 22 8 43 12 47 9 5 -3 11 -1 15 5 3 5 14 10 24 10 53 0 362 119
532 205 216 109 477 277 659 422 63 50 151 123 180 150 19 17 46 41 60 53 118
101 388 388 541 575 436 533 873 1268 1284 2160 12 28 39 85 59 128 19 42 59
131 87 197 29 66 55 120 58 120 14 0 143 -217 188 -315 60 -133 107 -255 97
-255 -3 0 0 -8 5 -19 10 -17 14 -17 83 -4 40 8 84 16 98 19 14 3 32 7 40 9 26
8 94 18 113 17 11 -1 31 19 52 53 l34 53 -30 89 c-83 239 -256 539 -439 758
-56 68 -65 84 -59 105 4 14 24 79 44 145 78 249 152 502 181 615 2 8 28 110
58 226 30 115 57 223 59 240 3 16 19 90 36 165 16 74 33 151 36 170 3 19 12
68 20 109 12 67 24 135 31 180 3 25 13 93 19 130 3 19 8 51 10 70 2 19 6 46 9
60 2 14 7 59 11 100 4 41 9 84 11 95 3 20 9 90 19 235 3 41 8 102 10 135 24
311 24 1028 1 1360 -3 33 -7 103 -11 155 -4 52 -8 109 -10 125 -1 17 -6 61
-10 99 -4 37 -9 85 -10 105 -2 20 -6 56 -10 81 -3 25 -10 79 -16 120 -17 129
-19 145 -24 160 -2 8 -6 33 -9 55 -9 75 -23 148 -91 488 -2 10 -6 26 -9 35 -3
9 -7 28 -10 42 -3 14 -12 50 -21 80 -8 30 -17 66 -20 80 -6 33 -67 246 -96
335 -12 39 -23 75 -25 80 -3 17 -45 139 -54 160 -5 11 -35 85 -66 165 -69 175
-104 256 -208 470 -169 350 -416 751 -655 1065 -25 33 -49 65 -53 70 -8 10
-136 169 -198 245 -19 23 -36 45 -37 49 -2 7 114 84 135 89 6 2 12 7 12 12 0
4 8 10 18 14 9 3 26 11 36 18 162 106 458 238 594 263 33 6 69 13 102 20 14 3
41 8 60 11 19 3 46 7 60 10 74 12 220 19 425 19 233 0 305 -4 480 -29 43 -6
54 -4 75 14 14 12 32 27 41 34 16 11 19 27 35 211 3 33 7 70 9 82 4 26 -4 33
-43 38 -15 3 -38 7 -52 10 -32 8 -222 42 -275 49 -137 20 -412 27 -560 14
-138 -13 -179 -17 -209 -24 -17 -4 -42 -8 -56 -9 -133 -14 -603 -162 -657
-207 -7 -6 -13 -8 -13 -5 0 5 -207 -97 -255 -126 -11 -7 -47 -27 -80 -46 -33
-19 -92 -56 -132 -83 l-72 -48 -67 62 c-112 107 -140 131 -194 178 -28 25 -66
58 -83 74 -18 15 -88 75 -157 133 -69 57 -136 115 -150 127 -50 46 -358 275
-460 343 -261 173 -555 334 -810 443 -68 29 -131 56 -140 61 -21 11 -260 105
-290 114 -14 4 -38 13 -55 20 -29 13 -220 76 -240 79 -5 1 -14 4 -20 7 -9 5
-46 17 -80 24 -5 2 -57 16 -115 33 -105 31 -316 87 -361 96 -13 3 -53 12 -89
21 -36 9 -72 18 -80 20 -8 2 -15 4 -15 5 0 1 -11 3 -25 4 -14 2 -38 6 -55 9
-65 14 -81 17 -110 22 -16 3 -56 10 -88 16 -32 5 -74 12 -94 15 -20 2 -48 6
-62 9 -77 13 -91 15 -246 34 -113 15 -183 22 -340 36 -44 4 -100 9 -125 12
-58 6 -875 14 -881 9z m826 -400 c22 -2 85 -7 140 -10 55 -4 111 -9 125 -11
14 -2 52 -7 85 -10 100 -10 253 -29 320 -40 58 -10 90 -15 115 -20 14 -3 39
-7 55 -10 86 -13 241 -45 410 -85 81 -20 272 -72 331 -91 33 -11 69 -21 80
-24 10 -2 60 -18 109 -35 50 -17 97 -32 105 -34 15 -4 119 -43 250 -93 217
-84 588 -266 815 -401 33 -19 69 -40 80 -46 22 -12 21 -12 175 -112 92 -59
236 -158 265 -182 6 -4 37 -28 70 -52 63 -47 212 -166 231 -184 6 -6 24 -22
40 -35 81 -67 202 -178 313 -286 108 -106 121 -123 109 -136 -9 -8 -53 -48
-99 -89 -46 -41 -182 -174 -304 -295 -239 -239 -328 -335 -490 -529 -22 -27
-45 -54 -50 -60 -24 -27 -158 -199 -222 -286 -152 -206 -299 -437 -429 -675
-42 -77 -84 -151 -92 -165 -31 -49 -312 -623 -312 -635 0 -2 -17 -41 -39 -87
-21 -46 -42 -94 -46 -108 -4 -14 -11 -29 -15 -35 -9 -11 -165 -386 -217 -520
-20 -49 -40 -101 -46 -115 -5 -14 -11 -29 -13 -35 -1 -5 -21 -57 -44 -115 -23
-58 -43 -112 -45 -120 -2 -8 -9 -28 -16 -45 -7 -16 -13 -32 -13 -35 -4 -18
-61 -167 -67 -175 -3 -5 -10 -26 -14 -45 -4 -19 -11 -41 -16 -50 -5 -8 -36
-96 -70 -195 -34 -99 -65 -189 -69 -200 -19 -49 -35 -90 -36 -95 -1 -10 -24
-79 -112 -340 -49 -146 -119 -359 -156 -475 -37 -115 -76 -235 -86 -265 -10
-30 -40 -122 -65 -205 -25 -82 -50 -161 -55 -175 -5 -14 -30 -92 -55 -175 -59
-191 -165 -525 -217 -680 -22 -66 -42 -127 -44 -135 -2 -8 -11 -35 -20 -60 -9
-25 -17 -52 -19 -60 -2 -8 -38 -114 -80 -235 -42 -121 -96 -276 -119 -345 -61
-175 -151 -421 -181 -495 -7 -16 -16 -41 -20 -55 -3 -14 -13 -38 -20 -55 -8
-16 -51 -120 -96 -230 -79 -191 -101 -242 -207 -470 -56 -118 -241 -486 -252
-500 -5 -5 -24 -39 -43 -75 -93 -175 -347 -580 -368 -588 -5 -2 -9 -8 -9 -12
0 -7 -125 -181 -173 -240 -6 -9 -48 -60 -92 -115 -75 -95 -191 -234 -204 -245
-3 -3 -28 -30 -55 -60 -105 -118 -273 -285 -426 -424 -19 -18 -87 -75 -150
-127 -408 -336 -819 -569 -1275 -726 -91 -31 -291 -89 -340 -99 -11 -2 -51
-10 -90 -18 -62 -13 -101 -21 -220 -40 -29 -5 -91 -13 -165 -21 -212 -23 -614
-23 -850 0 -25 3 -70 7 -100 10 -30 3 -66 7 -80 9 -14 2 -50 7 -80 11 -76 10
-242 38 -355 60 -16 3 -64 15 -105 25 -41 10 -86 21 -100 24 -40 8 -89 22
-180 50 -47 15 -92 28 -100 30 -8 2 -28 9 -45 16 -16 6 -31 11 -33 10 -8 -4
-301 109 -440 171 -246 108 -607 305 -774 420 -31 21 -61 39 -66 39 -6 0 -12
3 -14 8 -5 10 -66 52 -77 52 -5 0 -11 3 -13 8 -1 4 -25 22 -53 41 -105 73
-367 272 -395 301 -3 3 -32 28 -64 55 -109 91 -169 148 -341 320 -185 186
-201 203 -321 345 -201 237 -333 418 -546 750 -40 62 -178 299 -178 305 0 2
-14 28 -31 57 -34 57 -167 321 -216 428 -44 95 -69 154 -134 310 -59 144 -189
533 -214 640 -2 8 -13 51 -25 95 -26 96 -21 79 -58 245 -17 74 -33 155 -37
180 -4 25 -9 54 -12 65 -2 11 -6 36 -9 55 -2 19 -7 42 -9 51 -3 8 -7 37 -10
65 -3 27 -7 60 -9 74 -3 14 -7 48 -10 75 -4 28 -8 65 -10 83 -5 34 -15 141
-22 227 -22 283 -22 746 1 1000 12 140 23 241 29 285 2 14 7 48 11 75 46 341
133 716 241 1050 20 61 40 119 45 130 5 11 18 47 30 80 28 79 85 227 108 279
10 22 31 70 46 106 83 195 293 610 364 720 9 14 21 34 28 45 67 112 107 173
189 296 140 207 195 281 360 484 87 107 128 155 279 325 52 58 478 484 530
530 22 20 76 67 120 105 44 38 82 71 85 74 32 37 353 276 490 366 215 140 242
155 530 307 47 25 87 45 90 46 3 0 41 17 85 37 44 20 104 48 133 61 29 13 55
24 58 24 3 0 24 9 47 19 52 23 249 100 337 130 36 13 74 27 85 31 11 5 72 25
135 45 63 20 125 41 138 46 12 5 22 6 22 3 0 -3 -30 -56 -67 -117 -81 -132
-80 -131 -117 -198 -46 -85 -51 -94 -56 -99 -11 -11 -181 -362 -220 -455 -23
-55 -48 -113 -55 -130 -17 -37 -85 -233 -91 -259 -2 -11 -10 -40 -19 -65 -8
-25 -19 -66 -24 -91 -5 -25 -16 -76 -25 -113 -8 -38 -18 -87 -21 -110 -4 -23
-8 -44 -10 -47 -2 -3 -6 -30 -10 -60 -4 -30 -9 -66 -11 -80 -2 -14 -6 -47 -9
-75 -3 -27 -7 -63 -10 -80 -17 -138 -23 -503 -10 -670 11 -145 22 -256 30
-304 2 -13 7 -45 11 -70 4 -25 8 -55 11 -66 2 -11 6 -31 9 -45 3 -13 12 -56
20 -95 9 -38 17 -79 20 -90 6 -31 64 -227 77 -260 6 -16 12 -34 13 -40 3 -17
54 -147 74 -192 11 -24 20 -45 20 -48 0 -15 153 -311 204 -395 86 -140 262
-390 295 -420 3 -3 30 -34 60 -70 88 -105 397 -410 511 -504 58 -47 112 -92
120 -100 8 -7 65 -47 125 -89 61 -42 115 -81 122 -87 7 -5 15 -10 17 -10 3 0
32 -17 63 -37 98 -64 324 -181 448 -232 44 -19 94 -39 110 -46 39 -17 227 -80
285 -96 25 -7 50 -14 55 -15 89 -25 133 -37 145 -38 8 -1 26 -5 40 -8 49 -12
141 -29 228 -42 15 -3 45 -7 67 -11 155 -24 277 -30 580 -29 165 0 329 4 365
8 36 4 81 9 100 11 19 2 46 6 60 8 14 2 50 8 80 12 30 4 62 9 70 10 8 2 58 13
111 24 160 33 375 95 446 127 17 8 36 14 42 14 6 0 19 4 29 10 9 5 64 30 122
56 88 38 267 130 332 169 18 11 61 35 98 56 100 56 401 267 580 408 123 97
323 263 332 276 5 7 8 6 8 -1 0 -14 -47 -244 -60 -293 -5 -20 -11 -49 -14 -64
-3 -16 -12 -50 -20 -75 -8 -26 -17 -58 -20 -72 -5 -25 -62 -212 -73 -240 -4
-8 -7 -17 -7 -20 -5 -19 -67 -184 -106 -280 -127 -311 -220 -492 -445 -868
-44 -74 -230 -337 -289 -408 -197 -242 -213 -259 -391 -438 -131 -131 -305
-284 -425 -374 -41 -31 -77 -58 -80 -61 -12 -14 -255 -177 -340 -228 -113 -69
-391 -215 -500 -262 -153 -66 -378 -150 -480 -177 -176 -48 -290 -75 -380 -89
-19 -3 -46 -8 -60 -10 -14 -3 -43 -7 -65 -10 -22 -2 -67 -8 -100 -12 -124 -15
-619 -7 -715 12 -14 3 -43 7 -65 11 -199 28 -496 112 -652 184 -24 11 -45 20
-48 20 -5 0 -69 31 -235 115 -19 10 -43 25 -52 33 -10 8 -18 12 -18 8 0 -4 -6
-2 -13 4 -6 5 -64 44 -127 86 -358 238 -703 582 -949 944 -43 63 -81 122 -84
130 -4 8 -21 38 -37 65 -41 67 -152 296 -179 370 -13 33 -27 69 -32 80 -12 29
-79 253 -89 300 -4 22 -13 65 -20 95 -6 30 -13 66 -15 80 -4 26 -12 76 -20
120 -4 26 -15 138 -21 225 -4 59 -4 321 0 350 1 11 6 49 10 85 10 86 12 100
41 270 9 52 18 97 20 100 2 3 6 21 9 40 3 19 8 44 10 55 7 32 96 399 102 417
4 13 -9 20 -63 37 -81 24 -284 82 -297 84 -7 2 -22 -35 -41 -103 -34 -119 -51
-181 -72 -265 -14 -55 -26 -107 -29 -115 -10 -40 -23 -98 -27 -120 -3 -14 -15
-74 -27 -135 -11 -60 -23 -130 -26 -155 -2 -25 -6 -52 -9 -60 -23 -81 -24
-590 -1 -705 2 -12 7 -48 11 -80 8 -65 10 -75 25 -150 5 -27 12 -61 14 -75 3
-14 8 -36 11 -50 3 -14 8 -36 11 -50 6 -26 6 -27 18 -75 12 -48 114 -353 130
-388 8 -18 24 -57 37 -87 34 -81 170 -348 204 -400 16 -25 29 -47 30 -50 0 -7
147 -224 155 -230 3 -3 21 -26 38 -52 18 -25 40 -54 49 -64 10 -9 28 -31 40
-47 32 -43 167 -191 238 -261 195 -191 502 -423 707 -534 29 -16 89 -49 133
-73 154 -86 365 -180 530 -237 95 -33 253 -80 294 -88 14 -3 28 -7 31 -9 6 -3
108 -26 185 -41 11 -2 34 -7 50 -10 17 -4 41 -8 55 -10 14 -1 34 -4 45 -7 11
-3 47 -8 80 -12 33 -3 76 -9 95 -11 95 -13 187 -16 435 -17 313 -2 399 4 699
48 36 5 267 52 301 61 11 3 29 7 41 9 11 3 81 23 155 45 74 23 139 42 144 44
6 1 27 10 49 19 21 9 42 17 47 17 4 0 20 5 36 12 15 6 30 12 33 13 20 7 109
45 205 88 63 28 211 102 305 153 19 11 37 22 38 27 2 4 8 7 13 7 22 0 427 268
469 310 3 3 52 43 109 89 306 247 608 574 840 909 116 166 171 252 163 252 -4
0 -2 4 3 8 11 7 49 63 50 72 0 3 10 21 22 40 62 100 231 435 303 601 18 41 40
92 50 114 64 146 198 547 215 644 3 19 10 42 16 52 5 11 8 19 5 19 -2 0 2 28
10 63 13 55 32 149 49 242 2 17 7 50 11 75 3 25 7 52 9 60 2 8 9 56 15 105 6
50 13 104 15 120 5 31 11 88 21 190 12 111 13 130 19 195 3 36 7 92 10 125 3
33 7 95 10 138 5 73 8 81 63 165 31 48 62 96 68 107 6 11 42 72 78 135 78 132
234 441 261 515 10 28 21 55 25 60 4 6 17 37 30 70 13 33 29 74 36 90 50 110
188 583 220 750 4 22 8 45 10 50 1 6 5 26 8 45 4 19 11 58 16 85 5 28 12 73
15 100 3 28 8 59 10 70 4 18 7 44 19 165 34 346 23 842 -24 1065 -5 22 -12 65
-15 95 -4 30 -9 58 -11 61 -2 4 -6 24 -9 45 -3 22 -11 64 -19 94 -8 30 -12 58
-10 62 3 5 0 8 -6 8 -6 0 -9 3 -6 8 2 4 -2 32 -10 62 -9 30 -17 62 -19 70 -7
28 -34 125 -57 204 -23 78 -24 80 -73 104 l-49 25 -116 -39 c-63 -21 -119 -38
-125 -39 -12 0 -54 -63 -62 -92 -3 -14 8 -66 27 -126 40 -127 48 -156 54 -187
3 -14 12 -51 19 -82 8 -32 12 -58 10 -58 -2 0 -1 -6 3 -12 5 -7 9 -19 10 -28
1 -8 7 -44 14 -80 6 -36 13 -78 15 -95 2 -16 7 -46 10 -65 22 -136 30 -274 30
-530 -1 -216 -9 -439 -19 -500 -2 -14 -7 -52 -11 -85 -12 -104 -17 -137 -40
-270 -32 -175 -33 -178 -61 -275 -14 -47 -27 -92 -29 -100 -11 -42 -97 -280
-125 -345 -5 -11 -30 -69 -55 -129 -58 -136 -155 -339 -160 -334 -2 2 -7 30
-10 63 -4 33 -9 63 -11 66 -2 4 -6 24 -10 45 -9 66 -13 84 -18 102 -3 9 -12
53 -20 97 -8 44 -17 91 -21 105 -4 14 -8 34 -10 45 -3 19 -43 177 -79 310 -39
142 -148 449 -212 595 -62 139 -236 451 -300 537 -13 17 -24 34 -24 37 0 18
-264 361 -361 471 -241 270 -540 547 -804 745 -388 290 -767 494 -1186 638
-79 27 -147 50 -152 50 -4 1 -33 9 -65 19 -31 9 -61 18 -67 19 -5 1 -46 12
-91 23 -45 12 -92 24 -105 27 -75 15 -127 26 -149 30 -14 2 -36 7 -50 11 -14
3 -32 7 -40 8 -14 1 -79 12 -125 21 -11 2 -40 7 -65 9 -25 3 -52 8 -60 10 -8
3 -40 7 -70 10 -30 3 -62 7 -70 10 -8 2 -46 7 -85 10 -38 3 -88 8 -110 10 -22
2 -74 7 -115 10 -41 4 -95 8 -120 10 -66 6 -317 17 -377 16 -29 0 -55 4 -58 9
-4 6 -3 10 2 10 4 0 20 10 34 23 26 22 158 125 274 214 93 71 356 243 371 243
8 0 14 3 14 8 0 4 10 12 23 18 12 6 92 46 177 89 274 138 557 252 905 366 135
44 345 107 385 114 8 2 15 4 15 5 0 1 7 3 15 5 8 1 80 19 160 38 129 32 199
47 280 61 14 2 45 9 70 14 25 6 68 13 95 17 28 3 59 8 70 10 11 3 37 7 58 10
20 3 52 7 70 10 33 5 93 11 187 21 30 3 65 7 78 9 12 2 91 7 175 11 84 3 153
8 155 9 5 4 605 -4 657 -9z m-3675 -1750 c19 -2 69 -7 110 -10 41 -4 89 -9
105 -11 17 -3 46 -7 65 -10 53 -6 110 -15 165 -25 28 -5 66 -12 85 -15 19 -4
76 -15 125 -27 50 -11 106 -24 125 -28 19 -5 62 -16 95 -25 33 -9 67 -18 75
-20 8 -2 35 -11 60 -20 25 -9 55 -19 67 -21 49 -9 346 -125 482 -187 79 -36
198 -96 265 -133 66 -37 131 -72 143 -78 13 -6 23 -14 23 -18 0 -5 5 -8 11 -8
25 0 400 -262 508 -355 14 -12 64 -55 111 -96 426 -367 771 -805 989 -1254 78
-161 170 -399 221 -575 12 -41 26 -88 31 -105 5 -16 9 -32 8 -35 0 -3 4 -18
10 -33 6 -15 13 -40 16 -55 5 -27 11 -58 19 -89 18 -71 50 -239 67 -348 11
-71 22 -141 24 -155 2 -14 7 -52 11 -85 3 -33 8 -67 9 -76 2 -8 6 -53 10 -100
4 -46 8 -100 10 -119 10 -111 15 -277 8 -286 -4 -6 -35 -42 -68 -79 -174 -195
-352 -373 -505 -505 -41 -36 -77 -67 -80 -70 -15 -15 -117 -94 -200 -157 -244
-182 -532 -345 -780 -441 -133 -52 -339 -118 -400 -128 -14 -3 -38 -9 -55 -14
-16 -5 -79 -18 -140 -29 -229 -41 -394 -55 -660 -54 -210 0 -315 7 -485 32
-298 43 -604 135 -888 267 -41 19 -78 34 -83 34 -5 0 -9 5 -9 10 0 6 -6 10
-13 10 -19 0 -240 128 -360 209 -192 129 -316 231 -482 396 -218 218 -358 394
-515 650 -37 60 -190 351 -189 358 0 1 -5 16 -12 32 -7 17 -13 32 -14 35 -1 3
-5 14 -10 25 -58 143 -130 370 -150 475 -2 8 -8 33 -13 55 -6 22 -13 58 -17
80 -3 23 -7 50 -9 61 -2 12 -7 45 -11 75 -3 30 -8 61 -10 69 -24 89 -24 645
-1 830 3 19 8 60 11 90 8 64 12 94 25 170 23 133 27 153 34 178 3 9 7 28 10
42 7 40 45 178 73 265 69 213 198 485 343 720 111 179 319 481 438 635 31 40
26 38 124 45 40 3 93 7 118 10 62 6 166 14 290 21 58 3 106 7 108 9 5 5 487
-3 532 -9z m8250 -553 c14 -20 30 -41 35 -47 6 -6 42 -58 80 -116 39 -58 74
-109 78 -115 36 -46 266 -428 337 -560 230 -425 425 -898 515 -1245 2 -8 12
-42 21 -75 24 -88 75 -322 89 -408 3 -18 10 -54 15 -82 6 -27 12 -68 15 -90 9
-63 14 -97 20 -135 7 -47 13 -93 20 -160 3 -30 7 -69 10 -85 2 -17 6 -68 10
-115 4 -47 8 -101 10 -120 4 -36 14 -213 21 -360 5 -108 5 -710 0 -810 -20
-372 -18 -342 -31 -510 -11 -147 -21 -251 -30 -325 -4 -27 -11 -94 -21 -180
-2 -16 -5 -44 -8 -60 -2 -17 -7 -50 -10 -75 -3 -25 -8 -56 -11 -69 -2 -14 -7
-47 -10 -75 -3 -28 -8 -60 -10 -71 -5 -22 -12 -61 -21 -115 -5 -30 -48 -257
-60 -315 -2 -11 -6 -30 -8 -43 -3 -12 -7 -30 -10 -40 -3 -9 -7 -28 -10 -42
-30 -164 -235 -971 -271 -1067 -3 -9 -23 -5 -72 14 -261 100 -590 193 -803
227 -19 3 -44 7 -55 10 -137 27 -621 28 -786 1 -13 -2 -46 -6 -74 -10 -82 -10
-284 -52 -375 -79 -204 -59 -404 -145 -607 -262 -118 -68 -403 -256 -527 -348
-49 -36 -91 -65 -92 -63 -2 2 5 28 15 58 24 67 62 189 66 209 2 8 22 80 45
160 23 80 44 156 46 169 3 14 7 28 10 33 3 4 7 16 9 25 2 10 27 108 55 218 29
110 53 207 55 215 2 8 21 89 43 180 48 198 83 349 87 370 2 8 4 15 5 15 1 0 3
9 5 20 1 11 8 43 15 70 6 28 14 61 16 75 4 21 14 67 50 225 3 11 9 40 14 65 5
25 27 128 49 230 32 150 84 399 105 505 2 11 20 99 39 195 20 96 38 186 40
200 3 14 12 57 21 95 9 39 18 81 20 95 5 29 70 333 85 400 5 25 13 60 16 79 3
19 8 37 10 41 3 4 7 22 9 41 3 19 10 52 15 74 5 22 12 51 15 65 3 14 10 43 15
65 15 62 42 178 46 195 6 31 106 426 115 455 5 17 15 55 23 85 34 128 133 467
202 690 75 244 291 862 330 947 8 17 15 38 15 46 0 9 4 18 9 21 5 3 12 17 15
30 7 29 60 144 173 381 36 76 147 278 174 317 11 14 19 31 19 37 0 6 5 11 10
11 6 0 10 5 10 11 0 35 294 437 416 569 22 23 43 48 47 56 12 21 20 17 47 -23z
m-389 -7657 c177 -13 292 -33 514 -91 33 -8 67 -17 75 -19 69 -17 311 -107
394 -146 l65 -30 -15 -37 c-8 -21 -19 -47 -23 -58 -5 -11 -20 -49 -34 -85
-144 -368 -361 -900 -418 -1027 -10 -24 -35 -82 -55 -130 -20 -49 -52 -121
-70 -161 -19 -41 -34 -75 -34 -77 0 -3 -13 -33 -29 -67 -15 -35 -38 -83 -49
-108 -11 -25 -48 -103 -83 -175 -34 -71 -63 -132 -63 -135 -1 -3 -5 -11 -9
-17 -5 -7 -27 -50 -49 -95 -23 -46 -72 -134 -110 -196 -37 -63 -68 -118 -68
-123 0 -5 -4 -9 -10 -9 -5 0 -10 -5 -10 -10 0 -6 -8 -23 -19 -38 -10 -15 -47
-70 -81 -122 -35 -52 -102 -146 -149 -209 -47 -63 -93 -124 -101 -135 -82
-114 -413 -456 -541 -558 -19 -15 -45 -36 -59 -47 -14 -11 -41 -33 -60 -49
-95 -78 -298 -209 -425 -275 -103 -53 -312 -139 -372 -152 -10 -2 -63 -15
-118 -29 -55 -14 -120 -28 -145 -31 -25 -3 -67 -9 -95 -13 -27 -4 -122 -6
-210 -6 -132 1 -176 5 -250 24 -162 41 -280 106 -391 217 -190 190 -294 407
-327 682 -12 99 -14 316 -3 406 10 88 17 141 22 165 2 14 7 39 10 57 4 26 45
196 57 238 58 201 165 452 287 670 114 207 309 489 466 674 98 117 87 104 210
232 410 422 927 775 1390 947 106 40 289 96 348 106 16 3 52 10 80 16 63 12
110 18 206 26 41 4 76 7 77 8 4 4 185 -2 274 -8z"/>
</g>
</svg>
