<?xml version='1.0' encoding='utf-8'?>
<svg xmlns="http://www.w3.org/2000/svg" version="1.1" width="600px" height="976px" viewBox="0 0 600 976"> <g id="layer1"> <g style="fill:rgb(0,0,0); fill-opacity:1.0; stroke-linejoin: miter"> <path d="M249.2035,145.02927C249.6734,145.02927,251.90942,147.38594,251.91302,147.85324C251.9151,148.12595,252.15399,148.78659,252.46997,149.32968C253.3006,150.92099,255.50134,158.38608,255.51123,159.67197C255.5163,160.3343,255.36823,161.34859,255.17822,161.97359C254.98822,162.59846,254.45679,164.43404,254.00146,166.03535C253.5462,167.63655,253.05249,169.316,252.86096,169.74617C252.6695,170.17622,252.05737,171.6617,251.4837,173.06905C250.55775,175.40724,250.02283,176.58049,249.7329,176.58049C249.43639,176.58049,249.39615,175.35323,249.456,172.88985C249.5528,170.27827,249.8097,168.21089,250.11688,167.62398C250.46246,166.95894,250.67944,164.77498,250.76575,160.79951C250.84332,155.69406,250.75732,154.64255,250.03906,152.46591C249.56097,151.10568,249.19952,149.70566,249.19684,149.35495C249.19385,148.9653,248.91626,148.34384,248.6012,147.9177C247.89294,147.02682,247.84705,146.13083,248.4657,145.50266C248.73639,145.22775,249.04657,145.03049,249.20245,145.02927 Z M286.27734,180.8524C286.86716,180.8524,288.40906,182.47722,289.60373,184.34906L290.35397,185.62921L289.49673,185.6358C289.49512,185.63582,289.49347,185.63582,289.49182,185.63582C288.12573,185.63582,285.1388,181.26546,286.18668,180.86823C286.21368,180.85759,286.244,180.8524,286.27734,180.8524 Z M249.90244,194.90363C250.13443,194.90363,250.3282,195.05748,250.32996,195.29C250.33148,195.48482,250.255,195.68025,250.17706,195.68086L250.17628,195.68086C250.05931,195.68086,249.86363,195.48793,249.74548,195.29451C249.62677,195.06148,249.70349,194.9051,249.89832,194.90364C249.89969,194.90363,249.90106,194.90363,249.90244,194.90363 Z M209.61787,118.19349C205.755,118.19349,203.5457,118.34149,202.19862,118.69797C201.03175,118.97983,197.60847,119.74655,194.61256,120.354095C189.6711,121.327484,186.44588,122.52133,184.54823,124.05563C184.31593,124.25229,183.46083,124.53171,182.60445,124.65524C180.23085,125.10214,174.03017,129.55331,172.45082,131.94247C171.71858,133.00034,171.14314,134.1738,171.14583,134.5245C171.14821,134.83627,170.8047,135.77414,170.3821,136.55673C169.9598,137.37839,169.61598,138.27731,169.61806,138.55002C169.62349,139.25143,168.17635,143.62704,167.37038,145.23093C165.60555,148.82956,164.29494,160.80305,165.14986,165.55061C166.08534,170.64827,166.08711,170.88203,165.36183,172.83601C164.97993,173.85213,164.17427,175.49507,163.5973,176.47371C160.67305,181.32832,160.21297,182.3061,159.79941,184.25764C159.31143,186.67744,159.52786,189.48164,160.3141,190.37166C160.58925,190.68135,162.03786,191.56648,163.524,192.25655L166.2618,193.56038L166.3185,195.85896C166.40968,197.57295,166.65004,198.42842,167.2798,199.2419C167.7519,199.82283,168.14784,200.63802,168.15083,201.02766C168.16286,202.58638,169.3879,204.79817,170.48256,205.25728C172.12428,205.90718,173.11067,207.49715,173.36342,209.9504C173.69551,212.59761,174.72609,214.84981,176.17592,215.89082C176.99785,216.47313,177.59714,216.64546,180.02454,216.64546C180.49002,216.64546,181.02275,216.63913,181.63716,216.62813L186.00136,216.59456L189.68904,214.73457C191.70747,213.70589,193.60841,212.60017,193.95705,212.32466C194.65784,211.67477,196.23029,211.21152,197.36298,211.21152C197.66852,211.21152,197.94205,211.24522,198.15785,211.31807C198.6269,211.50935,200.43074,212.97615,202.19716,214.63826C204.82704,217.11201,205.65437,218.27461,207.35512,221.53499C209.21413,225.10565,210.09236,227.82672,210.70992,232.10846C210.9557,233.66522,210.87929,233.86066,209.29457,235.54852C208.3672,236.56891,206.5475,238.10272,205.30751,239.00848C202.78847,240.8205,200.15858,243.41254,199.816,244.46747C199.55013,245.36578,196.36873,247.1828,194.03523,247.78534C185.2458,250.03522,181.79274,252.0102,180.06868,255.84247C179.72371,256.5855,179.07088,257.83746,178.60927,258.62042C176.07088,262.9655,175.26399,264.45245,174.49965,266.4068C174.04103,267.5794,173.35262,269.2603,172.9695,270.12067C172.62544,270.98053,171.94142,273.2459,171.48885,275.19794C171.03596,277.11078,170.43141,279.57037,170.12813,280.66388C169.82448,281.71844,169.33528,283.98236,169.03651,285.66022C168.58723,288.04083,168.12892,289.25238,166.78102,291.32806C165.81795,292.7774,164.54799,294.85248,163.97188,295.94806C163.35658,297.00482,162.35756,298.84406,161.70381,299.9792C161.08907,301.11395,160.1656,302.64093,159.74234,303.34552C159.28018,304.0506,158.78116,305.02863,158.62888,305.4975C158.4769,306.0052,157.82285,307.10138,157.12833,308.003C156.12582,309.37457,154.59085,312.4649,151.71848,318.9948C151.41159,319.62067,151.06839,320.59744,150.95572,321.14383C150.6152,322.47134,148.39267,327.35965,146.12637,331.62466L145.4739,332.91556L144.88272,332.0629C144.52847,331.59793,142.95663,329.89542,141.3854,328.2709C139.81412,326.64627,137.33951,324.0934,135.92532,322.62344C134.51083,321.11465,132.54776,319.2204,131.56705,318.37054C129.33035,316.3614,124.844696,310.74567,122.39853,306.82867C121.33322,305.12213,120.26999,303.68866,119.99637,303.5738C119.52756,303.42157,114.719086,296.36627,114.715485,295.89862C114.71457,295.7818,114.00485,294.69623,113.17691,293.4555C110.73374,289.92828,107.330124,283.13498,107.04234,281.1888C106.83824,279.9824,106.94554,278.73447,107.28691,277.5239C107.629745,276.50803,107.9619,274.08945,108.064064,272.17926C108.16599,270.22992,108.53611,267.69427,108.838844,266.52277C109.14158,265.35138,109.39756,263.16718,109.38615,261.68646C109.36753,259.27057,109.207436,258.72626,107.8253,256.35995C106.995895,254.92453,106.16411,253.17722,106.00261,252.43808C105.84129,251.738,105.562546,250.96066,105.405136,250.76706C105.24754,250.53452,105.00621,249.5621,104.84288,248.58908C104.67949,247.61618,104.08092,245.78928,103.447556,244.50815C102.85344,243.26584,102.215256,241.3613,102.09056,240.34909C101.9254,239.1423,101.330734,237.82199,100.54295,236.73691C99.4669,235.26231,99.14265,235.04327,97.86053,235.04327C97.828674,235.04327,97.79623,235.04341,97.76317,235.04367C96.3994,235.05417,95.933586,235.2916,94.50353,236.82248C93.45734,237.9408,92.9988,238.34285,92.55289,238.34285C92.37281,238.34285,92.194786,238.27728,91.98095,238.16684C91.59554,237.96503,90.81608,237.8755,89.91137,237.8755C88.060776,237.8755,85.68617,238.25009,85.08843,238.80441C84.62414,239.23654,83.69048,239.43857,82.014946,239.4515C79.79388,239.4686,79.483025,239.58798,78.245415,240.80551C77.510735,241.55148,76.893364,242.33578,76.895134,242.56955C76.896965,242.80331,76.50878,243.00107,76.08013,243.00436C75.61254,243.00803,74.60241,243.40549,73.78747,243.84042C72.235405,244.70969,72.197624,244.86581,71.25945,249.54929C71.18548,250.05637,70.64355,250.52829,69.827385,250.80734C66.99004,251.76437,66.74035,254.76682,68.616875,265.66354C69.10607,268.46555,69.66265,269.90305,72.431145,275.1815C74.84441,279.87802,76.22466,282.0107,77.99285,283.90646C79.28954,285.2994,80.62786,287.0427,80.98431,287.78036C81.34069,288.5179,82.128716,289.64194,82.718315,290.2999C83.34655,290.91855,84.44994,292.50778,85.20019,293.78806C85.95043,295.0682,87.49023,297.6672,88.63525,299.60678C91.23998,303.87314,92.98034,307.21103,92.98516,307.83456C92.99084,308.57492,95.7611,314.08713,96.705246,315.24887C97.17735,315.8298,98.16533,317.61472,98.87901,319.20688C100.62236,322.93454,103.11589,327.94223,104.1425,329.68784C104.57689,330.4249,105.21025,331.70602,105.4893,332.5222C105.76805,333.2994,106.44011,334.54123,106.95201,335.23862C107.50267,335.89694,108.252914,337.1771,108.64915,338.0314C109.04539,338.88553,110.23124,341.05862,111.2974,342.882C112.36362,344.70535,113.74631,347.1497,114.33981,348.31412C114.97226,349.4783,116.0759,351.10635,116.8226,351.9191C117.569244,352.7316,119.30087,354.93948,120.67996,356.9163C122.01987,358.8544,124.30179,361.68155,125.75522,363.1901C129.87967,367.44485,135.70486,374.95987,138.11362,379.07193C139.40761,381.26385,141.55182,382.37924,144.11006,382.37924C146.07924,382.37924,148.29373,381.71838,150.5546,380.37894C152.02872,379.51028,153.38712,378.7985,153.543,378.79727C153.69888,378.79605,154.0864,378.5203,154.35648,378.1674C154.62656,377.8146,155.20773,377.3815,155.6738,377.18314C160.33382,375.08194,162.88936,372.95792,166.82582,367.97867C167.86794,366.6846,169.18233,365.31058,169.72456,364.87772C171.15816,363.8146,175.05928,359.30313,176.29085,357.3063C176.86842,356.40567,178.64351,354.13174,180.26534,352.20975C181.88753,350.3268,183.70003,347.85794,184.27638,346.8013C184.8915,345.70535,186.58675,343.1984,188.09084,341.16043C189.59523,339.1614,191.32979,336.69315,191.98409,335.6359C192.59975,334.61807,193.83223,332.73807,194.67958,331.4456C195.527,330.1531,196.41237,328.74332,196.64314,328.35184C196.82588,328.0476,196.95157,327.8818,197.1333,327.8818C197.37253,327.8818,197.70885,328.16907,198.40022,328.80594C200.24489,330.50638,204.82582,333.31583,207.09212,334.1166C208.14717,334.49832,211.15181,335.02066,213.7646,335.27335C218.99025,335.7786,220.8271,336.46597,221.816,338.3677C223.12099,340.8517,227.61353,347.3638,229.14587,348.98868C230.04956,349.95584,231.5846,351.93143,232.57037,353.44363C233.55597,354.9169,236.46649,358.40164,239.0982,361.10916C243.9693,366.17642,244.67853,367.18423,246.86066,372.2333C247.5354,373.82584,248.7248,376.46646,249.51642,378.05814C250.26904,379.64993,251.2594,381.7466,251.69586,382.7565L252.4497,384.50418L250.9726,384.9832C250.15637,385.26224,249.26172,385.46402,249.06683,385.46548C248.83307,385.46732,247.66736,385.90494,246.50262,386.4595C245.33783,387.01407,244.17218,387.4517,243.89941,387.45377C243.62665,387.45584,242.57782,387.8925,241.49042,388.36856C240.4422,388.88333,238.61499,389.4429,237.4469,389.56876C236.27911,389.73367,235.15125,390.01505,234.91925,390.25076C234.72589,390.44705,234.18188,390.64603,233.7143,390.6497C233.01288,390.65506,229.08539,391.73746,226.32635,392.73294C225.70465,392.97147,224.38312,393.4103,223.4117,393.76846C222.43996,394.0878,221.19783,394.72086,220.61635,395.1149C220.0738,395.50894,219.41377,395.8257,219.17995,395.82742C218.94618,395.82925,218.09169,396.18655,217.31563,396.62112C216.50063,397.05618,215.56813,397.4141,215.25642,397.41653C214.90572,397.41922,214.28432,397.6967,213.85817,398.01175C213.4709,398.32645,212.84956,398.60403,212.5378,398.60648C212.22609,398.6088,211.2936,398.9667,210.47859,399.40164C209.70259,399.8362,208.7701,400.19412,208.45833,400.19656C208.14662,400.199,206.51546,400.913,204.88582,401.8218C203.21687,402.69205,200.81001,403.87955,199.52827,404.43497C198.2466,404.9905,195.68593,406.45206,193.82515,407.7133C191.92543,408.97488,190.06404,410.15823,189.63637,410.27847C188.31477,410.71732,182.96028,413.72012,180.0912,415.6127C178.618,416.59842,176.98927,417.62405,176.44582,417.90103C175.90211,418.13907,174.42976,419.2415,173.1523,420.34244C171.87453,421.40433,170.13063,422.66483,169.277,423.13907C167.76363,423.96902,163.96565,426.68716,162.96028,427.70804C162.071,428.6111,159.27933,430.42508,157.1832,431.49344C156.09665,432.08633,153.81143,433.8965,152.1099,435.58524C150.44724,437.2737,148.62936,439.0413,148.12613,439.4738C146.73288,440.7316,145.45877,442.26114,145.46176,442.6508C145.46323,442.8456,144.88144,443.20084,144.18216,443.4789C142.89987,443.95645,141.59,445.91495,141.60141,447.39566C141.6041,447.74637,141.22165,448.68445,140.75974,449.42847C139.52786,451.38647,138.60861,453.45886,137.35092,457.1316C136.13132,460.687,136.02194,461.6621,136.77335,463.09814C137.08926,463.64124,137.44809,464.69067,137.57071,465.43018C137.9343,467.10303,151.26724,493.14807,153.31631,496.09387C154.10458,497.25684,154.89474,498.6537,155.05478,499.198C155.49423,500.5974,157.15543,503.78003,158.61429,505.99C160.30959,508.54883,161.81013,511.10925,162.56306,512.7401C162.88051,513.478,163.94405,514.9507,164.88759,516.03455C165.79225,517.1188,167.01253,518.7069,167.56459,519.56006C168.11671,520.4131,169.49257,521.9612,170.592,523.04395C171.69118,524.08765,172.59517,525.09375,172.59663,525.2886C172.60207,525.99,176.73671,531.5696,179.25154,534.2781C180.70564,535.8646,182.24031,537.80115,182.67525,538.6162C183.07118,539.4314,185.66487,542.2561,188.37422,544.9241C191.08363,547.59204,193.75545,550.4552,194.30763,551.3082C195.37263,552.9757,196.74782,554.4459,198.9836,556.33813C199.72871,556.9558,200.82942,558.19434,201.38155,559.0475C201.93367,559.9004,203.15303,561.3718,204.05641,562.30005C204.96016,563.26746,206.45375,564.9315,207.35841,566.01575C208.22408,567.1001,209.83607,568.95825,210.85817,570.1194C212.66682,572.2097,213.49348,573.29443,217.27602,578.6819C218.30002,580.154,219.28261,581.3152,219.43929,581.3152L219.44136,581.3152C219.63535,581.3152,219.79207,581.5471,219.79414,581.819C219.79659,582.13074,220.15138,582.6736,220.58308,583.05994C221.01472,583.4463,221.36897,583.91125,221.37013,584.06714C221.37135,584.2229,222.3962,585.73486,223.65602,587.40076C224.87689,589.067,226.49396,591.5874,227.20648,593.0238C227.91895,594.4602,228.86462,595.8168,229.2561,596.0476C230.31244,596.5851,230.23895,597.17017,228.9654,598.7776C228.3476,599.5227,227.77032,600.4624,227.61719,600.81433C227.42627,601.3224,226.96014,601.52075,225.7522,601.53015L224.1546,601.5425L224.401,603.17725C224.73108,605.55176,224.73047,605.47375,224.315,607.19165C223.48372,610.46844,224.22533,615.95056,225.47029,615.95056L225.47702,615.95056C226.13805,615.95056,226.73141,617.4236,226.46722,618.47595C226.35455,619.02234,226.04614,619.45337,225.85132,619.45483C225.34473,619.45874,223.83797,621.146,222.79854,622.79065C221.95174,624.161,221.85945,627.3572,222.61122,628.83215C223.00716,629.6476,224.6914,630.76465,226.17603,631.25977C226.48871,631.37427,225.68481,633.25085,223.87917,636.6161C223.61061,637.1637,222.99678,638.4154,222.53725,639.4712C222.03853,640.4881,221.34584,641.6235,220.95888,641.97723C220.57191,642.3309,220.26656,643.1517,220.27162,643.814C220.27675,644.4765,219.9341,645.5312,219.51057,646.19696C219.08705,646.86273,218.74538,648.03436,218.75166,648.8526C218.75832,649.7099,218.49513,650.95905,218.1501,651.7021C217.49849,653.1098,214.48402,656.3675,212.81721,657.51044C212.27437,657.8653,210.88063,659.0451,209.75874,660.1059C207.55354,662.1882,203.68007,665.21857,203.21248,665.2222C203.01765,665.2237,202.36153,666.04706,201.74586,667.065C200.74507,668.6705,200.59364,669.25616,200.61226,671.67206C200.62398,673.1917,200.82991,674.632,201.0262,674.82526C201.26186,675.0573,201.62184,676.2625,201.82631,677.5079C202.31636,680.4268,202.90718,681.24054,205.56856,682.7399C207.14278,683.62335,207.60641,683.8721,209.34494,683.8721C210.02689,683.8721,210.905,683.8338,212.12325,683.7806C214.77205,683.6431,216.87416,683.3542,217.45625,683.038C217.99934,682.722,219.2046,682.362,220.1775,682.19867C222.86317,681.78827,226.47888,680.7083,228.14783,679.8382C229.00183,679.403,230.01227,679.0445,230.40192,679.04144C230.79156,679.0384,232.11157,678.4047,233.31384,677.6551C234.55536,676.94415,236.34149,676.112,237.39148,675.8311C238.63599,675.5098,239.6836,674.9172,240.6883,673.8184C241.7323,672.7581,242.7019,672.1662,243.90778,671.8841C246.20288,671.3598,247.24896,670.57245,247.89905,668.96967C248.51141,667.52313,250.17853,666.4191,251.81512,666.40656C253.13995,666.3963,254.2652,665.7642,255.38501,664.4307C255.88678,663.8034,257.2428,662.7797,258.44568,662.1081C259.6092,661.39764,260.69397,660.57086,260.80817,660.2193C260.92267,659.9067,261.89172,659.23676,262.90125,658.7614C263.91107,658.3249,265.57758,657.143,266.62213,656.1608C267.62775,655.1788,269.29462,654.0358,270.305,653.6773C272.4029,652.84283,276.82373,650.04205,276.81952,649.4965C276.81805,649.3017,278.6803,648.23517,281.00952,647.0872C283.3001,645.97845,285.7826,644.47845,286.51752,643.77155C287.2525,643.0644,289.2286,641.6072,290.93503,640.5419C292.60245,639.47705,294.2678,638.1393,294.69223,637.59045C295.07767,637.0419,296.85867,635.54736,298.6808,634.3253C304.22412,630.5416,306.84863,627.24805,306.82495,624.1698C306.812,622.49426,306.65375,622.1837,305.24164,620.98645C304.37866,620.2527,303.24323,619.5602,302.69653,619.40845C302.15015,619.29565,301.40826,619.10657,301.0567,618.9923C300.66644,618.9175,300.35138,618.49133,300.34778,618.0237C300.34448,617.5951,300.06537,616.7788,299.78845,616.2355C299.47223,615.6533,298.87903,614.5277,298.52206,613.7123C298.16507,612.8966,297.1423,611.6576,296.28,611.0017C295.45627,610.3065,293.92343,608.60376,292.97684,607.13025C290.84866,604.0292,283.5044,596.604,281.27307,595.29626C280.412,594.79626,278.6474,593.36804,277.35217,592.17004C274.2839,589.3017,273.33167,588.70636,271.7264,588.70636C271.70938,588.70636,271.6923,588.7064,271.6751,588.70654C271.6363,588.70685,271.59824,588.707,271.56088,588.707C270.06015,588.707,269.70676,588.4556,268.97443,587.1686C268.69745,586.6251,267.08246,584.37744,265.38953,582.1304C263.6966,579.8832,261.76508,577.0144,261.0537,575.7339C260.3424,574.45337,259.12067,572.6703,258.33447,571.78015C256.17212,569.30273,255.1482,567.90784,255.14398,567.3623C255.1419,567.0895,254.90417,566.58484,254.62903,566.27515C254.15692,565.6942,250.25012,559.3335,248.78821,556.7339C247.2868,554.05664,243.28943,546.0598,243.28705,545.74817C243.28522,545.5143,242.49744,544.4293,241.55359,543.3065C240.60938,542.1448,239.7027,540.78784,239.5426,540.2435C239.38257,539.6992,238.94525,538.5725,238.54895,537.71814C237.04303,534.4564,236.60602,533.3688,235.84674,530.91956C235.40729,529.52014,234.92413,527.49744,234.7602,526.44653C234.59589,525.3567,234.23407,523.9176,233.91669,523.1797C233.59949,522.4807,233.35736,521.3915,233.35254,520.76794C233.33966,519.0924,231.50873,514.1185,229.13385,509.34375C228.61896,508.2567,228.18127,507.09094,228.17859,506.74023C228.1759,506.38953,227.97778,505.9624,227.7431,505.8474C227.547,505.693,226.91522,504.6067,226.36035,503.40295C225.80524,502.16028,225.21112,500.91785,225.01392,500.60754C224.81665,500.29736,224.10596,499.09485,223.4352,498.0089C222.76405,496.8839,221.89803,495.7605,221.5063,495.49072C221.15352,495.2207,220.36641,494.2135,219.81337,493.24365C218.31313,490.72217,210.87898,481.7389,208.60298,479.69104C206.71913,477.9519,204.94734,475.5885,204.94044,474.69226C204.9344,473.91296,208.43178,472.63904,212.09041,472.06543C213.68999,471.79153,215.15334,471.62842,215.65283,471.62842C215.74881,471.62842,215.8092,471.63443,215.82814,471.64685C215.85292,471.659,215.9294,471.6649,216.05063,471.6649C216.69522,471.6649,218.60504,471.4982,220.73488,471.21936C224.78345,470.68164,271.0655,469.07825,285.48297,468.96716L289.45743,468.9365L289.44876,467.8065C289.44003,466.67648,290.09885,466.2037,292.58847,465.639L293.5612,465.43674L293.53036,476.6208C293.4999,482.77814,293.62698,489.1679,293.75687,490.8426C294.08914,494.36655,294.48837,495.0869,297.82068,495.0869C298.31784,495.0869,298.88028,495.07086,299.51752,495.04572C300.48895,495.00665,301.26987,494.97864,301.89774,494.97864C304.3669,494.97864,304.46936,495.41165,304.48395,497.3067C304.49207,498.3587,304.85718,500.22638,305.2561,501.43134C305.69427,502.675,306.13702,504.5031,306.30072,505.51495C306.4254,506.52716,306.70538,507.4604,306.94006,507.57538C307.13617,507.7298,307.29645,508.31305,307.30096,508.89752C307.3097,510.02753,309.38635,516.5583,310.29578,518.2658C310.88928,519.43036,312.32056,523.1213,312.68176,524.4825C312.80286,525.02716,313.0816,525.80426,313.27972,526.2314C313.47784,526.6585,314.15436,528.4848,314.83093,530.3111C316.30475,534.4694,318.01184,538.5479,318.48303,539.0119C318.67963,539.2443,318.8385,539.63275,318.84094,539.9444C318.84454,540.41205,320.3109,543.5961,321.2185,545.0699C321.4157,545.3802,322.12946,546.9725,322.84314,548.56464C323.55682,550.1568,324.6272,552.5257,325.22162,553.80707C325.81598,555.0883,326.69006,557.26385,327.16846,558.66315C328.32465,562.0444,330.26514,566.0822,330.93146,566.5837C331.245,566.815,331.95776,568.29034,332.51532,569.8448C333.07312,571.4382,334.26044,573.8062,335.08893,575.1247C335.95673,576.4819,336.66766,577.72345,336.66943,577.9572C336.67096,578.15204,337.30347,579.3162,338.0534,580.55743C338.80334,581.79865,339.43616,583.0018,339.43793,583.23553C339.43945,583.43036,340.82,585.602,342.51447,588.044C344.16998,590.48615,345.74634,592.77325,345.94385,593.1225C350.3222,599.9861,355.51166,605.9082,358.52313,607.3269C359.38373,607.7489,360.16663,608.2106,360.28436,608.3264C360.40253,608.48145,361.14618,608.9044,361.92847,609.2881C362.75006,609.71045,364.5102,610.5542,365.8401,611.2063C368.06522,612.3169,373.12772,614.0266,374.07825,614.0266L374.08447,614.0266C374.40094,614.0266,382.21973,617.7833,385.93527,619.70264C386.3264,619.8944,387.4603,620.39233,388.43747,620.7744C392.03317,622.14954,393.754,622.9547,395.2817,623.995C398.0226,625.8437,401.23184,627.84424,401.4681,627.84424L401.4692,627.84424C401.74454,627.84424,403.50662,628.9998,406.5997,631.27295C407.8928,632.1981,409.8513,633.50806,410.98642,634.16174C412.1215,634.81555,414.1193,636.16406,415.41293,637.1671C416.74545,638.20874,417.88138,639.01807,417.96008,639.01807L417.9602,639.01807C418.03906,639.01807,420.5451,640.63513,423.5602,642.599C426.53665,644.52454,429.9426,646.5636,431.1158,647.1002C432.28903,647.6367,433.62015,648.4447,434.05234,648.90906C434.4846,649.3733,436.09,650.37415,437.577,651.181C439.1027,651.9486,440.86337,652.87024,441.48978,653.2551C442.15524,653.63965,443.13242,654.022,443.71805,654.1732C444.2645,654.286,446.45627,655.5161,448.57114,656.9026C450.68527,658.2886,452.52466,659.4042,452.643,659.4042L452.64343,659.4042C452.80066,659.4042,454.21024,660.367,455.81595,661.5231C457.42252,662.6797,460.3588,664.4497,462.35385,665.4475C464.89658,666.71387,466.30655,667.6382,466.9368,668.5296C467.41013,669.2664,469.4514,671.19904,471.4902,672.82C473.5294,674.4799,476.0007,676.6042,476.9824,677.57086C481.33942,681.6679,483.8899,683.94745,484.75134,684.4864C486.00458,685.295,494.68182,693.76227,497.98346,697.4388C501.00995,700.80585,501.8777,702.163,502.28394,704.303L502.5675,705.70374L500.85022,705.3662C499.7361,705.16516,498.7095,705.0636,497.8422,705.0636C496.6134,705.0636,495.7043,705.2675,495.31915,705.68164C494.9709,705.9961,494.58868,706.97327,494.4781,707.7925L494.25574,709.2749L492.81006,708.7794C492.0287,708.5127,490.81653,707.97656,490.07318,707.5925C489.49783,707.30615,488.95,707.18097,488.46655,707.18097C486.74765,707.18097,485.8422,708.76276,487.4052,710.3019C487.91565,710.80457,489.2072,711.53503,490.26233,711.9166C491.35638,712.29785,492.4906,712.8346,492.80414,713.06604C493.70575,713.7605,497.25677,714.3956,500.3354,714.4109C500.4029,714.4104,500.46933,714.4101,500.5347,714.4101C502.46927,714.4101,503.48264,714.63837,504.31592,715.15955C504.98138,715.5442,505.76428,716.00574,506.0769,716.12024C511.43237,718.3002,511.58942,718.45483,512.94275,722.1465C513.3013,723.15686,514.4487,725.4082,515.5532,727.1532C516.61884,728.8987,517.48785,730.41174,517.4888,730.5287C517.4896,730.6455,518.12354,732.00464,518.8759,733.5575C519.6283,735.1105,520.2637,736.6643,520.2664,737.015C520.2724,737.7943,522.75916,741.90576,523.6221,742.6395C524.17114,743.1029,526.58325,747.6437,526.588,748.26715C526.589,748.38403,527.0653,749.51044,527.62,750.7142C529.40295,754.51935,530.9514,758.2484,532.1874,761.863C532.8644,763.7672,533.5419,765.7104,533.74,766.1375C536.1997,771.808,537.8956,774.4447,540.79895,776.9943C541.7798,777.84406,542.9568,778.88715,543.46704,779.3508C544.2363,780.0523,545.9484,780.4383,548.08044,780.4383C548.88464,780.4383,549.74854,780.3834,550.64417,780.2698C553.9143,779.8549,557.6754,777.4099,561.07446,773.4869C563.85547,770.27,565.0469,768.11755,565.5327,765.42505C565.68225,764.6055,566.02515,763.5897,566.29456,763.159C566.6417,762.6887,566.8257,761.2844,566.8104,759.2971C566.79114,756.8033,566.94104,756.0228,567.52075,755.39484C568.9885,753.7079,569.5419,749.6509,568.6256,747.0471C568.30664,746.11426,568.34045,745.45154,568.8357,743.9669C569.59753,741.7009,569.349,739.79346,568.0032,737.0759C567.4092,735.8335,567.16833,734.9392,567.3602,734.54785C568.1282,733.06116,568.18774,730.6837,567.553,729.2079C567.15674,728.3535,566.7118,726.2527,566.5421,724.4614C566.3335,722.6704,565.9696,720.95874,565.6941,720.6101C565.34045,720.22314,565.09375,718.54944,564.9966,716.0563C564.9022,713.9137,564.6516,711.7333,564.41394,711.2285C564.0581,710.56885,564.05396,710.0233,564.3971,709.0465C564.969,707.4054,564.92554,701.7553,564.3308,700.435C563.9741,699.6584,563.96814,698.8791,564.343,696.96674C564.71704,694.93744,564.7084,693.80743,564.173,690.0706C563.1044,682.8697,562.86304,681.8974,561.35803,678.7525C558.9031,673.7055,557.57227,672.93634,549.381,671.9084C545.4802,671.3929,541.8092,670.36896,538.8367,668.95C536.803,667.9915,536.25684,667.91766,529.2799,667.69867C516.6126,667.3676,514.5434,666.877,511.3224,663.5505C508.49408,660.61066,506.84674,659.2205,505.3603,658.4915C504.77338,658.1844,503.12512,656.6772,501.74957,655.168C500.37524,653.66016,499.04184,652.42426,498.76755,652.42426L498.76556,652.42426C498.53046,652.42426,497.8266,651.92365,497.19922,651.2673C496.60992,650.6484,495.5135,649.9554,494.8103,649.72687C493.91168,649.4222,493.04785,648.5715,491.70795,646.6335C489.57916,643.4543,488.24377,642.10077,484.7165,639.4781C483.30524,638.3979,482.12823,637.3547,482.1267,637.15985C482.0829,636.5368,478.42337,631.9278,476.69662,630.3433C475.87228,629.57025,473.86948,627.5594,472.25888,625.8962C470.6484,624.23285,468.8032,622.4545,468.13657,621.9141C465.7051,619.9065,460.0082,613.87134,458.74692,612.0105C457.99814,610.9252,456.38644,609.1062,455.13022,607.9077C453.835,606.70984,452.14474,604.81323,451.31717,603.6117C449.15036,600.5498,444.87088,596.41327,442.79764,595.377C441.81992,594.91693,439.7034,593.33563,438.13394,591.94476C436.52524,590.5153,434.05716,588.81976,432.64896,588.1291C431.2408,587.43866,429.91025,586.70844,429.67435,586.43744C429.4774,586.1662,427.63913,585.2841,425.68423,584.44183C423.69064,583.63885,421.57834,582.60297,420.99088,582.21783C420.3644,581.83295,418.75992,580.94904,417.3517,580.25836C414.45712,578.8388,412.77408,577.8776,410.4628,576.2978C409.56174,575.6812,407.99808,575.0308,406.98312,574.80475C405.92923,574.57904,404.4824,573.9277,403.6982,573.31024C401.85605,571.9217,401.03445,571.4993,399.31754,571.20087C397.4838,570.90314,394.62485,569.05475,393.4435,567.4661C392.4589,566.1098,391.89084,563.19147,391.05325,555.6381C390.8434,553.69135,390.47598,551.5119,390.27542,550.773C390.07486,550.03424,389.7913,548.6335,389.62796,547.6606C389.50357,546.6873,389.1409,545.1313,388.82162,544.1596C388.54135,543.18756,388.1658,539.956,387.9868,536.95685C387.43668,526.2448,386.8434,520.0534,386.28738,518.6938C385.96994,517.9559,385.6852,516.39923,385.67648,515.2692C385.66782,514.1392,385.46036,512.5042,385.21994,511.64862C385.01852,510.79303,384.5737,508.69208,384.28775,506.97968C383.96283,505.26764,383.43585,502.62177,383.0348,501.1441C382.67242,499.627,382.149,497.4489,381.86725,496.28192C381.5052,494.8039,381.36542,491.84344,381.40436,486.77728C381.43726,480.9317,381.34583,479.1789,380.87164,478.32513C380.08032,476.77264,379.87805,455.5753,380.69397,455.2573C381.0824,455.09848,381.26703,453.7722,381.4361,450.41953C381.844,442.6617,381.91498,441.76486,382.51593,433.7717C383.04248,426.24667,383.02625,424.14255,382.16473,418.5378C381.5901,414.76218,379.8222,407.83945,379.15167,406.79245C378.8363,406.32736,378.59564,405.43295,378.59088,404.80942C378.57916,403.28976,376.471,397.7335,374.6938,394.66867C373.82428,393.07773,371.73956,390.56076,369.2262,388.0471C365.57355,384.33432,364.94647,383.87158,362.36694,382.8783L359.51404,381.80908L356.9875,377.58093C354.4214,373.27527,353.51764,372.3081,349.797,369.8817C348.66125,369.15015,346.46472,367.2964,344.89435,365.78882C343.3241,364.28113,341.32355,362.5819,340.3836,361.96558C339.4439,361.3883,338.2683,360.54016,337.7198,360.15466C337.17126,359.76917,336.07513,359.11523,335.2931,358.7705C333.37653,357.84998,330.67078,355.64966,330.6657,354.98718C330.66327,354.67554,330.50317,354.13123,330.26642,353.7434C329.3579,352.1526,326.3053,345.3955,326.302,344.96692C326.30017,344.73315,326.02264,344.11182,325.66833,343.64697C325.35303,343.18164,324.52002,341.2787,323.88214,339.4131C322.3687,335.17725,320.6656,331.60535,319.5658,330.48364C318.11206,328.93604,315.7965,321.74475,315.37292,317.34448C315.24432,315.8258,314.87622,313.56848,314.55463,312.28503C314.23297,311.00146,313.8694,309.3286,313.74677,308.58923C313.5852,307.8501,313.1446,306.2948,312.7072,305.1681C312.30884,304.0409,311.94733,302.64087,311.94287,302.0564C311.93835,301.47192,311.695,300.2268,311.3758,299.25513C310.13782,295.36783,309.5749,293.11197,309.32544,291.08743C309.1996,289.91946,308.83716,288.4025,308.52063,287.7814C307.3321,285.2576,306.61035,282.6133,306.4344,280.0037C306.3058,278.48502,306.06085,277.04495,305.825,276.77408C305.5105,276.4258,305.70447,276.3074,306.63965,276.3002C307.30212,276.29507,307.84637,276.13504,307.84515,275.97916C307.8437,275.78433,308.11285,275.3146,308.42133,274.88358C308.57358,274.6812,308.68335,274.55826,308.76077,274.55826C308.93826,274.55826,308.94568,275.20477,308.9054,277.0231C308.84564,279.49222,309.05783,280.50793,310.01065,280.50793C310.47162,280.50793,311.10593,280.2702,311.96667,279.84427C313.98535,278.85452,315.25714,277.0132,315.24274,275.14285C315.23688,274.38367,315.26974,274.08148,315.49368,274.08148C315.6031,274.08148,315.75812,274.1536,315.9765,274.27982C316.44766,274.51895,316.9448,274.6369,317.4093,274.6369C318.0632,274.6369,318.65244,274.40317,319.01343,273.94473C320.32568,272.29788,321.12598,269.95377,320.92004,268.51346C320.42816,265.36075,320.10803,264.27213,319.43988,263.5369C319.04688,263.11124,318.609,261.90652,318.4447,260.81668C318.19708,259.02615,317.83954,258.1326,315.77966,253.78397C315.38312,252.89078,314.00702,251.30374,312.7124,250.18362C311.41785,249.0635,310.35706,247.94156,310.35468,247.62979C310.35254,247.35696,309.91998,246.85379,309.37177,246.50735C308.07928,245.65994,308.11438,245.15298,309.5525,244.67435C310.44604,244.3168,310.71637,244.00296,310.7104,243.22366C310.70587,242.63919,310.42682,241.8229,310.11212,241.4357C309.79706,241.00943,309.5171,240.07632,309.51166,239.37491C309.5063,238.67444,309.34637,238.09183,309.15192,238.09183L309.15063,238.09183C308.95514,238.09183,308.2474,237.20157,307.53845,236.15579C306.7909,235.0338,306.00696,234.22244,305.57773,234.22244C305.57687,234.22244,305.576,234.22246,305.57513,234.22246C305.57385,234.22247,305.57254,234.22247,305.57126,234.22247C305.1437,234.22247,304.67355,233.68106,304.2779,232.75163C303.68225,231.31438,303.68225,231.31438,304.65558,231.19011C305.1615,231.1082,305.66595,230.83159,305.78046,230.51884C306.12427,229.61992,311.68768,228.44707,317.41333,228.09123C319.7893,227.95598,322.67072,227.66106,323.8382,227.4572C325.00543,227.2144,328.00336,226.87968,330.45642,226.62688C332.9098,226.41313,336.76324,225.83794,339.01996,225.39189C345.12866,224.17583,349.83728,223.32109,352.28937,222.95158C353.4572,222.78667,354.7796,222.46477,355.2068,222.26665C355.5946,222.02983,356.95636,221.74663,358.20203,221.5811C359.40912,221.455,361.15924,221.01274,362.0528,220.6552C363.33472,220.13872,365.12604,219.96904,371.28265,219.92168L378.91974,219.8239L383.80365,221.5009C389.1561,223.29118,390.64194,223.94206,391.81894,224.98528C392.25064,225.37163,393.85422,226.1386,395.33914,226.67265C396.8633,227.24553,398.66147,227.97197,399.3652,228.27837C400.06604,228.54478,400.8441,228.81049,401.11972,228.81049C401.1208,228.81049,401.12183,228.81049,401.1229,228.81047C401.39597,228.84721,402.2946,229.15215,403.15518,229.57414C404.01572,229.99626,404.91434,230.30095,405.1484,230.33806C405.14914,230.33806,405.1499,230.33804,405.15067,230.33804C405.38696,230.33804,406.12677,230.60454,406.78983,230.94902C408.8972,231.9437,419.82724,234.88814,421.53918,234.88814C421.5429,234.88814,421.54657,234.88812,421.5502,234.88809C421.55228,234.88808,421.55438,234.88806,421.55652,234.88806C421.9951,234.88806,423.66483,235.22458,425.25797,235.63882C426.83963,236.05008,428.99136,236.38104,430.0574,236.38104C430.07037,236.38104,430.08316,236.38098,430.0958,236.38089C430.125,236.38066,430.15417,236.38055,430.18332,236.38055C431.24268,236.38055,432.2464,236.5265,432.47574,236.75223C432.98618,237.25491,437.94504,238.54166,442.0029,239.21194C443.83676,239.50955,446.2955,239.9971,447.4669,240.29984C448.63828,240.60269,450.66776,241.01566,451.95517,241.20059C453.24283,241.42435,454.99905,241.76163,455.85806,241.9888C456.7036,242.21251,458.0017,242.39482,458.78546,242.39482C458.79803,242.39482,458.8105,242.39478,458.82278,242.39468C458.82956,242.39464,458.83633,242.3946,458.84317,242.3946C460.0935,242.3946,462.2721,243.27312,464.72586,244.84314C465.23477,245.151,466.8768,245.83972,468.36203,246.41284C469.88614,246.9856,471.80154,247.75024,472.66177,248.1333C473.522,248.51624,474.42123,248.89917,474.61636,248.93665C476.76547,249.69934,481.30927,252.74292,482.56757,254.21411C484.33783,256.38257,485.63184,257.4248,487.9782,258.4978C488.40833,258.68933,490.44177,259.6089,492.47552,260.5675C494.50897,261.48706,496.6596,262.44482,497.24585,262.67407C497.9235,262.9554,498.92255,263.0945,499.83084,263.0945C500.6518,263.0945,501.39856,262.9809,501.76685,262.75598C501.88293,262.68222,502.0429,262.6463,502.2305,262.6463C502.5443,262.6463,502.9353,262.74683,503.32703,262.93896C503.87457,263.20752,506.33246,263.57825,508.75018,263.79333C511.5575,264.0056,513.5086,264.3413,514.09607,264.72656C514.6715,265.10382,515.84406,265.32684,517.0638,265.32684C517.08923,265.32684,517.1147,265.32672,517.14014,265.32654C519.3612,265.30945,520.1757,264.7965,520.66864,263.03918C520.85645,262.48282,521.11664,262.2181,521.62823,262.2181C522.0507,262.2181,522.6448,262.39865,523.5111,262.7445C524.2393,263.04453,525.90356,263.29987,527.25366,263.29987C527.28064,263.29987,527.3075,263.29977,527.3342,263.29956C529.4774,263.28296,529.9437,263.12366,531.49316,261.9037C534.20483,259.8175,535.03357,256.109,533.2261,254.17456C532.36414,253.28719,528.8202,251.6058,527.75854,251.6058C527.756,251.6058,527.7534,251.60582,527.75085,251.60583C527.7494,251.60585,527.74786,251.60585,527.74634,251.60585C527.4682,251.60585,526.57605,251.41867,525.7992,251.19226C524.19836,250.77588,523.8806,249.99902,524.88354,248.66626C525.7704,247.45154,525.625,243.75061,524.6022,242.51147C523.9332,241.6593,523.8124,241.15369,523.9977,239.90529C524.33215,237.79848,523.61304,235.50478,522.3976,234.53993L521.41754,233.7682L522.38025,232.27992C523.3822,230.83034,523.71155,228.06105,523.1151,226.50697C522.3843,224.69058,516.20795,223.30536,510.5774,223.30536C508.86203,223.30536,507.19733,223.43393,505.7527,223.71803C504.5855,223.96083,500.8487,224.49623,497.42297,224.95119L491.1938,225.7007L488.45776,224.63063C486.97253,224.05751,485.09735,223.4485,484.35583,223.29836C482.5996,222.96107,479.2792,221.89552,476.54312,220.82545C471.93106,219.02956,463.29703,216.17336,460.2131,215.45671C458.41757,215.08086,455.68253,214.12773,454.15707,213.3991C450.4808,211.67387,445.1658,209.68852,440.59567,208.28178C438.56467,207.67387,435.67368,206.72197,434.18875,206.18779C432.7141,205.65744,430.81735,205.20714,429.98975,205.20714C429.98395,205.20714,429.97824,205.20715,429.97256,205.2072C429.9611,205.20729,429.9496,205.20734,429.93802,205.20734C427.99026,205.20734,425.12924,203.95259,424.8503,202.94743C424.6489,202.09172,421.67484,200.47795,419.0983,199.87431C418.12204,199.60905,416.48062,198.99821,415.3857,198.50005C413.5474,197.61797,411.5164,197.01006,406.59702,195.80095C403.7861,195.12114,401.48196,194.47649,396.05283,192.8427C393.59195,192.0822,390.03854,191.13544,388.1259,190.7215C386.25217,190.30719,383.55664,189.43182,382.07117,188.81964C379.49557,187.65752,373.64325,186.66695,370.15155,186.66695C369.61426,186.66695,369.13287,186.6904,368.7279,186.7403C365.3665,187.21288,353.78937,187.65767,347.50635,187.65767C345.56766,187.65767,344.133,187.61531,343.5993,187.51837C338.27795,186.63356,335.10385,186.42606,322.71228,186.42606C321.02048,186.42606,319.1569,186.42992,317.09253,186.43646C312.88712,186.4612,309.5657,186.49118,306.93414,186.49118C296.1791,186.49118,296.9464,185.99048,295.98093,182.58527C295.37997,180.4466,294.9058,179.59308,293.3348,178.00739C292.27463,176.96356,291.13443,175.64728,290.77982,175.1435C290.4252,174.63959,289.68008,174.02191,289.13272,173.79218C287.25607,172.98834,285.335,171.48346,284.66364,170.31941C284.19,169.54378,283.74463,167.36494,283.36993,164.25044C282.28534,154.98422,281.2437,151.29025,278.7199,147.41281C277.97083,146.28854,276.9817,144.34787,276.4652,143.06577C275.27307,140.07443,273.06342,136.50632,271.9265,135.61874C271.41693,135.233,270.59082,134.22629,270.03876,133.37314C269.05255,131.82211,267.60425,130.97592,260.9173,127.948944C258.67575,126.94392,255.35295,126.44383,252.15952,126.44383C248.77928,126.44383,245.54398,127.004135,243.8894,128.11899C243.07532,128.67087,242.14343,129.10666,241.79272,129.10934C241.44208,129.11203,240.27698,129.62766,239.23004,130.29807C238.22168,130.92941,237.29071,131.48215,237.17377,131.48312L237.1724,131.48312C236.74258,131.48312,235.52428,129.93517,234.65472,128.2291C233.34967,125.74521,232.40814,124.93405,229.67273,123.941986C228.42224,123.48398,226.66217,122.64035,225.83936,122.06198C225.01854,121.523865,224.12064,121.06393,223.88472,121.06393C223.88425,121.06393,223.88377,121.063934,223.88332,121.063934C223.88289,121.063934,223.88245,121.06394,223.882,121.06394C223.60608,121.06394,222.20029,120.41318,220.71596,119.646454L217.97719,118.22568L211.15755,118.20041C210.61703,118.19583,210.10434,118.19349,209.61787,118.19349 Z"/> </g> </g> </svg>