<?xml version="1.0" encoding="UTF-8"?>
<!DOCTYPE svg  PUBLIC '-//W3C//DTD SVG 1.1//EN'  'http://www.w3.org/Graphics/SVG/1.1/DTD/svg11.dtd'>
<svg enable-background="new 155.0979 79.8435 1049.9021 1718.2045" version="1.1" viewBox="155.0979 79.8435 1049.9021 1718.2045" xml:space="preserve" xmlns="http://www.w3.org/2000/svg">
	<path d="m433.57 1685.6c2.12-2.0599 5.7-2.5599 8.08-0.61-0.49 0.36-1.46 1.09-1.95 1.45 3.12 2.1001 3.66 7.0701 8.04 7.2101 0.09 1.9399-0.18 3.99-1.63 5.46-4.22 4.99-9.92 8.4301-14.4 13.18 1.02-3.24 2.66-6.2101 4.15-9.23-2.56-1.2101-5.76-2.1101-7-4.92-1.32-2.48-1.14-5.34-1.14-8.02 2.16-1.2302 4.02-2.8602 5.85-4.5202z" fill="#fff" stroke="#fff" stroke-width=".0938"/>
<g stroke="#000" stroke-width=".0938">
	<path d="m254.9 114.97c4.61 0.42 8.71 2.97 11.91 6.2 4.89 4.94 8.52 10.91 12.45 16.6 4.39 6.54 9.75 12.44 15.82 17.46-2.13-9.26-8.07-16.92-11.75-25.54-1.26-2.91-1.66-6.11-1.59-9.26 5.79 0.38 11.25 3.5 14.56 8.26 6.34 8.85 7.74 20.19 13.89 29.15 1.69 2.48 3.95 4.55 6.53 6.08-0.93-5.99-2.75-11.86-3.01-17.95-0.3-5.92 0.1-11.85 0.82-17.72 3.1 0.25 6.72 0.82 8.4 3.8 3.9 6.38 1.52 14.47 4.84 21.05 1.87 4.2 1.55 9.14 4.02 13.11 4.86 8.11 7.25 17.4 9.25 26.56 2.75 12.83 4.82 25.84 8.67 38.41 3.81 10.89 11.45 19.79 18.09 29.04 8.2 10.71 15.14 22.29 21.99 33.89 23.29 39.29 44.27 79.87 66.1 119.97 17.01 32.27 39.62 61.48 53.88 95.2 9.9 23.32 16.18 48.04 26.92 71.02 6.39 13.97 15.4 26.85 27.4 36.58 29.6 24.37 67.31 35.52 98.33 57.72 7.28 5.25 14.09 11.22 19.87 18.12 2.14 3.13 6.36 2.88 9.4901 4.46 17.09 6.6 28.4 21.79 43.21 31.85 2.24 1.73 5.46 2.59 6.52 5.48 10.4 22.03 30.21 37.17 45.13 55.85 20.28 24.82 27.66 57.34 47.63 82.35 21.46 27.56 45.52 53.89 59.87 86.14 9.65 21.95 16.42 45.13 27.66 66.38 2.22 4.02 3.57 8.4401 5.48 12.61 8.98 19.99 18.32 39.82 26.82 60.02 7.4301 17.39 14.33 35.09 18.74 53.52 11.94 46.14 18.34 93.5 30.38 139.61 5.66 21.77 12.61 43.25 21.86 63.78 15.93 36.35 36.94 70.6 48.4 108.82 8.26 26.18 13.44 53.2 20.1 79.79 2.38 2.29 5.6801 3.66 7.49 6.6 5.0901 7.62 4.52 17.24 4.7001 26.01 0.29 8.09 0.0499 16.75 4.1899 24.04 1.2001 2.4099 3.3501 4.11 5.0601 6.1599 0.45 3.04-2.21 5.8401-4.99 6.76-8.89 2.91-19.09-0.99-27.44 3.99 0.38 1.2301-0.2999 3.64 1.55 3.92 0.98 0.29 1.97 0.61 2.97 0.9501-7.14-1.78-13.88 1.8899-19.74 5.5299-4.46 2.5701-8.86 6.02-14.25 6.02-7.5699-17.96-13.79-36.97-25.99-52.47-1.4401-2.21-4.36-3.9401-3.96-6.88 0-2.98 1.78-5.49 2.9901-8.0701-12.29-14.02-21.38-30.54-28.19-47.83-15.33-38.29-21.99-80.34-44.59-115.49-11.37-16.57-23.36-32.9-31.76-51.25-33.78-72.62-68.82-144.64-103.05-217.04-10.52-3.62-22.41-3.9399-32.7 0.6001-13.56 5.72-23.73 17.04-32.22 28.71-12.75 17.49-22.13 37.09-33.65 55.36-10.57 16.17-21 32.45-31.03 48.96-22.93 36.94-38.85 77.65-60.93 115.06-8.62 14.35-19.29 27.28-29.5 40.48-24.34 30.84-38.17 68.04-56.69 102.32-10.84 20.22-23.46 39.88-40.45 55.5-0.21 2.2401 2.29 4.16 1.76 6.5801-0.83 3.66-1.56 7.51-3.26 10.88-11.43 13.21-22.79 26.8-30.74 42.48-4.24 8.3199-7.26 17.56-6.47 27.02-7.5-1.6-7.89-10.36-10.7-16.06 1.32 0.78 2.65 1.54 4.01 2.29 0.77-2.97 1.43-6.01 3.25-8.52-2.42-2.0599-4.83-4.15-6.9-6.55 1.5 0.16 3 0.3301 4.51 0.52-3.06-5.49-10.29-5-15.56-6.71 1.69 3.21 3.82 6.26 4.8 9.8 0.72 3.1499-0.85 6.1799-2.06 9.0199-19.69-2.49-39.38-6.1799-59.31-5.5299 1.81-5.9501 8.64-8.0901 14.25-7.8401 14.43 0.37 27.8 7.04 42.18 7.91 0.86-2.88 1.93-6.74-0.98-8.8199-4.78-2.4501-10.49-0.4501-15.37-2.5701-1.94-0.74-2.3-2.99-2.95-4.6699 8.05 2.49 17.05 3.45 24.87-0.37-1.09-2.38-2.48-4.87-5.1-5.75-9.66-3.7401-20.62-0.03-30.15-4.42 2.91-11.94 7.95-23.21 11.34-35.01 2.76-8.92 4.23-18.18 4.96-27.47 2.65-4.91 8.76-5.97 13.42-8.1901 10.39-40.7 26.41-80.02 48.02-116.06 21.44-36.07 48.34-69.38 62.91-109.14 7.06-18.1 7.44-37.83 12.61-56.42 13.86-46.64 26.96-93.62 45.12-138.83 1.11-2.49 1.33-5.23 1.36-7.91 0.33-11.56 4.94-22.71 11.87-31.87 2.79-3.95 6.1299-7.46 9.12-11.25 0.21-3.99-0.56-8.12 0.86-11.96 1.85-5.87 6.63-10 10.05-14.93-3.06-1.3199-6.68-3.27-6.77-7.0699-0.23-8.1901 5.66-15.43 4.32-23.74-0.35-3.19-2.96-5.28-5.14-7.3199-0.36-1.54 0.53-2.98 0.96-4.39 2.68-6.14 5.71-12.12 8.83-18.04 1.56-2.78-0.4-5.67-1.65-8.11-1.96-3.82-4.78-7.77-4.08-12.28 0.55-3.15 3.74-4.5 6.2-5.91-6.5-10.55-14.19-20.29-22.04-29.84-4.48-5.11-8.34-10.88-13.2-15.57-19.13-1.79-38.55-7.38-53.85-19.38-3.05-2.2-5.24-5.35-8.19-7.62-14.69-0.7-29.67-1.5-44.11 1.81-7.3 1.66-14.42 4.82-19.89 10.01-3.66 3.5-6.14 7.98-8.5 12.41-13.05 24.48-20.72 51.66-36.1 74.94-7.46 11.07-16.86 20.69-24.03 31.97-24.09 36.72-44.08 75.96-68.64 112.39-10.7 16.63-23.89 31.42-35.93 47.06-9.87 13.1-20.64 26.93-22.61 43.77-1.42 8.97-0.3 18.24-2.61 27.09-1.11 4.16-3.55 7.8199-6.55 10.86 1.34 10.59 4.39 21.74 0.13 32.09-3.47-0.45-6.39-2.86-7.81-6-3.49-7.5-2.69-16.15-5.92-23.74-4.55 2.46-6.38 7.5601-7.26 12.36-1.29 5.4301-1.53 11.41-4.8 16.16-2.74 3.95-8.15 4.84-12.58 3.85-4.94-12.09 6.39-22.78 5.59-34.85-6.41 1.13-10.04 7.13-12.32 12.67-2.59 5.86-5.01 12.87-11.35 15.64-2.25 0.6801-5.61 2.3401-7.28-0.1799-2.47-2.7-3.24-6.71-1.91-10.11 2.87-8.3301 10.01-14.67 11.54-23.55-8.79 1.0801-15.85 6.89-23.48 10.85-3.95 2-8.3 4.2301-12.87 3.38-3.19-0.6-5.16-3.4099-6.99-5.8199 2.44-6.35 8.32-10.4 14.15-13.35 6.8-3.63 14.55-6.3201 19.54-12.51 2.33-2.74 3.55-6.2001 4.15-9.7001-6.78-3.5-14.38-0.6699-21.3 0.79-5.6 1.17-12.13 3.01-17.27-0.52-3.99-3.2899-5.36-8.96-4.8-13.92 4.13-0.88 7.32 2.8999 11.28 2.84 9.73-2.4501 17.09-9.6901 25.2-15.14 1.63-1.39 3.87-0.65 5.8-0.72 9.92 0.61 20.44-1.8101 27.95-8.62 8.51-7.77 13.11-18.6 18.3-28.64 8.21-17.45 20.38-32.63 29.23-49.72 9.75-20.14 19.38-40.48 32.06-59 5.15-8.05 11.92-14.93 17.79-22.35 8.07-27.35 20.76-52.99 33.85-78.21-10.28 2.61-21.06-0.75-29.27-7.1-0.38 1.09-1.31 2.38-0.33 3.49 2.95 3.37 7.33 4.89 11.18 6.97 1.11 2.14-2.12 2.98-3.69 2.61-4.96-1.16-8.99-5.03-14.27-5.06 3.67 5.08 10.01 6.31 15.43 8.61-5.84 1.89-12.49 3.4-18.28 0.51-8.53-4.19-12.33-13.95-20.5-18.64 0.6 2.78 1.91 5.32 3.48 7.68-2.27-0.44-4.82-0.67-6.48-2.48-6.87-6.59-8.97-16.63-15.87-23.18-1.69-1.83-4.24-2.11-6.56-2.38-1.41-16.18-15.41-26.68-21.1-41.08-3.16-7.48 0.03-16.04-3.41-23.43-1.75-2.89-5.21-4.1-7.21-6.78-3.12-3.64-0.7-9.42-4.24-12.82-3.72-4.03-9.96-5.28-12.74-10.19-0.96-4.41-0.02-9.17-2.09-13.35 5.1-2.49 6.76-8.19 7.71-13.33 6.19 0.06 12.7 0.59 18.5-2.0099-0.01-4.04-0.47-8.0601-0.18-12.08 0.39-10.63 3.6-21.01 3.08-31.7 14.44-12.52 26.52-28.17 43.7-37.21 3.25-1.92 7.05-2.75 10.19-4.86 1.99-1.37 1.4-4.08 1.88-6.12-0.06-2.39 1.68-4.1 3.1-5.78 12.97 0.73 23.99-8.22 36.85-8.2 5.89 0 10 5.58 15.95 5.48 13.41 0.23 26.88-5.46 40.21-1.6 6.27 1.24 12.51 5.94 19.02 3.31 8.3-3.48 14.37-10.53 22.24-14.74 3.55-2.19 7.7 0.95 11.41-0.3101 8-6.95 8.84-18.26 13.68-27.15-11.8-12.95-18.9-29.47-23.14-46.3-6.48-24.92-8.12-50.88-15.64-75.56-8.32-27.04-25-50.42-35.23-76.66-4.99-12.88-8.68-26.37-15.78-38.33-21.23-35.1-38.28-72.48-55.19-109.79-11.19-24.28-19.26-50.27-34.51-72.47-4.02-5.96-9.45-11.07-16.11-13.91-9.42-4.04-19.12-7.64-27.75-13.26-8.17-5.31-13.72-13.83-22.29-18.62-4.78-2.84-10.36-3.79-15.82-4.3 2.13-4.89 6.38-9.27 11.99-9.54 10.31-0.55 19.5 5.09 28.43 9.46 2.58-7.64 1.66-16.58-3.13-23.18-7.49-10.78-19.71-16.94-27.83-27.16-3.32-4.17-5.97-9.07-6.58-14.43 8.73-1.77 16.94 3.19 22.7 9.32 8.24 7.78 14.63 18.26 25.41 22.82-5.93-12.24-17.45-20.85-22.72-33.49-1.9901-4.6299-2.2301-9.7699-1.4601-14.7m100.63 751.12c1.27 2.23 0.48 4.6299-0.37 6.85 7.76 7.52 19.02 8.69 28.16 13.78 3 1.5601 5.22 4.2 6.87 7.11-5.47-1-12.13-1.27-16.11 3.33-1.89 1.91 0.48 3.95 1.67 5.46-1.32 0.63-2.62 1.3-3.93 1.95-0.01 0.54-0.02 1.62-0.03 2.16 3.75-0.34 7.51-0.96 11.28-0.67 1.54 0.23 3.5 0.26 4.24 1.94-1.78 3.23-5.42 4.8-8.85 5.65-7.61 1.72-15.69 1.37-22.97 4.53 2.72 2.01 5.57 3.94 7.77 6.56 3.85 4.43 6.97 9.76 12.17 12.79 3.49 2.12 7.64 2.62 11.65 2.77 4.8-13.9 9.87-27.7 14.35-41.71 5.04-16.21 9.72-32.82 10.05-49.91-18.62 5.89-37.29 11.64-55.95 17.41m-3.18 31.06c0.7 2.49 1.61 5.08 3.67 6.81 3.47 3.06 8.42 3.12 12.79 2.97 1.42 0.45 3.13-2.02 1.48-2.8-4.72-4.82-11.44-6.43-17.94-6.98z"/>
	<path d="m1100.4 1622.4c3.63-1.63 7.63-2.39 11.58-2.78 3.48 1.86 7.3401 2.6 11.26 2.89-6.4 2.47-13.39 3.48-20.19 2.5599-1.3901-0.27-4.0902-0.77-2.6501-2.6699z"/>
	<path d="m1121.8 1629c0.53-2.7 2.7899-4.6 4.22-6.83 2.97 2.76 5.47 6.08 6.9 9.9 2.11 5.65 2.5 11.79 4.6699 17.44 1.13 2.99 3.05 5.5901 4.6001 8.38-1.92 1.02-3.89 2.28-6.15 2.16-4.8-0.27-8.76-3.3-12.94-5.3-4.13 2.6101-6.96 6.65-10.52 9.9-2.9801 2.76-7.2001 3.89-11.19 3.47-0.13-3.8099-0.65-8.3899 2.6-11.14 2.6901-1.9801 5.99-3.04 9.26-3.62 5.97 1.5099 12.15 0.0499 18.01-1.38-2.36-6.7101-8.72-11.11-15.49-12.52-12.53-2.85-25.42-0.28-38.09-0.77-0.61-3.77-3.04-6.96-3.25-10.8 5.75 3.9601 12.73 5.3301 19.62 5.4 10.32 0.28 20.63-0.8099 30.96-0.3-1.1599-1.27-2.55-2.4-3.2099-3.99z"/>
	<path d="m392.65 1624.9c1.82-0.02 3.65-0.02 5.49-0.01-0.01 1.7999-0.02 3.6-0.02 5.4399-1.83-0.01-3.66-0.01-5.48 0.02-0.01-1.84 0-3.65 0.01-5.4499z"/>
	<path d="m1082.6 1646.4c2.72 0.5601 2.4301 3.8 3.24 5.86 6.49 0.36 11.86-5.15 18.47-3.25-2.7 5.29-6.72 11.26-13.39 11.19 0.5901-1.49 1.2301-2.9401 1.8501-4.4-3.14 1.04-6.3501 1.89-9.67 1.98 0.4401-1.27 1.03-2.47 1.38-3.75-0.7201-2.5301-1.8601-4.9701-1.8801-7.6301z"/>
	<path d="m430.94 1653.7c1.51-0.0801 3.39-0.79 4.48 0.72 2.83 3.89 2.55 9.41 0.46 13.59-0.91 1.49-2.39 3.66-4.4 2.48-3.4-1.89-4.75-6.1-8.37-7.76 2.16 6.9601-0.54 14.23 1.73 21.2-3.88-4.9601-10.18-8.67-10.75-15.54 2.58 1.13 5.22 2.22 8.05 2.59-0.44-3.5699-3-6.48-6.27-7.7799-8.25-3.51-17.59-2.38-25.93-5.61 3.39-2.64 7.89-3.0601 12.05-3.03 10.23 0.28 19.9 4.13 29.13 8.26 2.68-2.6402 1.97-6.4402-0.18-9.1202z"/>
	<path d="m1117.7 1659.6c4.2001-0.4401 7.9301 1.54 11.51 3.46-2.2699 3.66-7.6899 3.9301-11.02 1.67-1.7-1.24-0.82-3.49-0.4901-5.13z"/>
	<path d="m386.83 1667.9c1.74-3.22 6.21-3.13 9.13-1.79 1.8 0.9401 0.48 3.16 0.25 4.64-3.01-1.33-6.21-2.09-9.38-2.85z"/>
	<path d="m398.16 1665.3c7.82 1.7899 10.93 9.76 14.55 15.97 2.01 3.84 5.37 6.73 9.33 8.4399 5.84-3.71 11.02-8.9099 13.33-15.56 1.59 2.2 3.69 4.66 6.74 4.2999 2.69 0.03 6.77-1.0699 6.84-4.33-0.61-1.97-3.82-4.48-0.86-5.92 2.92 2.25 4.7 6.41 9.05 6.04-5.05 19.63-2.41 40-0.07 59.81 1.11 3.5699-2.25 6.2-2.48 9.6799-25.35 2.85-49.5 11.65-74.53 16.15-19.75 3.8-40.26 4.27-59.99 0.09 1.65-1.72 4.65-3.1799 4.2-5.9399-0.59-3.48-1.59-6.88-1.88-10.39 17.18-2.52 34.37 1.77 50.42 7.66-0.7-1.8101-1.49-3.64-1.32-5.5901 9.33 0.3401 17.89 5.75 27.34 4.9401 2.38 0.02 3.71-2.1 4.89-3.8301-5.18-2.4399-11.57-4-16.85-0.97 0.14-3.64 2.17-6.8199 5.16-8.7899 5.72-3.5901 12.69-5.3101 19.41-4.42 0.96-2.91 1.43-6.23-0.06-9.04-1.73-3.3099-4.75-5.9399-5.42-9.76 5.56 1.8301 10.13 7.02 16.54 5.51-0.26-1.7999-0.35-3.91-1.97-5.0399-4.01-2.3201-9.26-1-13.11-3.6901-2.29-1.53-0.95-4.4301-0.07-6.35 5.09-0.3101 9.23 3.1899 13.97 4.4299 2.85 0.99 5.92 0.7001 8.83 0.17-4.29-6.26-10-11.37-14.81-17.21-6.81-7.97-13.54-16.41-17.18-26.36m35.41 20.3c-1.83 1.66-3.69 3.29-5.85 4.52 0 2.6801-0.18 5.54 1.14 8.02 1.24 2.8099 4.44 3.71 7 4.92-1.49 3.0199-3.13 5.99-4.15 9.23 4.48-4.75 10.18-8.1901 14.4-13.18 1.45-1.47 1.72-3.52 1.63-5.46-4.38-0.14-4.92-5.11-8.04-7.2101 0.49-0.36 1.46-1.09 1.95-1.45-2.38-1.9498-5.96-1.4498-8.08 0.6102z"/>
	<path d="m362.78 1676.8c5.47-5.92 13.87-8.13 21.66-8.75-4.64 4.61-10.78 7.33-15.4 11.98-2.81 2.7-4.78 6.15-6.01 9.84-2.98-3.72-3.77-9.4301-0.25-13.07z"/>
	<path d="m1118.2 1667.9c5.8-0.6 12.04-0.4601 17.2 2.61 5.1 2.78 7.99 8.28 9.48 13.7-6.73-2.0399-9.9-8.98-15.46-12.69-1.89-1.4301-4.1001-0.47-5.91 0.48 1.64 4.34 7.23 7.92 4.76 13.08-3.0801-1.22-1.91-6-5.3-6.65-3.73 0.7301-6.76 3.6901-10.71 3.4901-0.36-1.92-1.13-3.91-0.4401-5.8 1.4601-1.6901 3.6801-2.4301 5.3301-3.9 0.9599-1.2202 0.7099-2.9302 1.0499-4.3202z"/>
	<path d="m1058.4 1681.9c0.4601 0.2001 1.3701 0.5901 1.8301 0.78 2.03 4.92 2.2 10.33 3.49 15.46-1.55-0.65-3.42-1.1101-4.15-2.77-2.08-4.18-1.02-9.01-1.1701-13.47z"/>
	<path d="m1150.1 1689.7c1.8201-0.04 3.64-0.0701 5.49-0.0701v5.51c-1.84-0.05-3.64-0.05-5.45-0.0599-0.01-1.8101-0.02-3.6101-0.04-5.38z"/>
	<path d="m1149.5 1697.6c4.67-0.71 9.3501 0.55 14.05 0.45-0.12 1.2101-0.21 2.4301-0.27 3.6901 2.12 0.97 4.35 1.6899 6.49 2.66-0.12 1.4199-0.29 2.84-0.49 4.2899-4.0599-2.0699-8.02-4.5599-12.56-5.4099-3.17-0.7301-6.4401-0.4301-9.65-0.4301 0.2199-1.97-0.0902-4.76 2.4299-5.25z"/>
	<path d="m381.78 1708.4c0.75-1.23 1.56-2.78 3.22-2.78 5.42-0.54 10.83 0.61 16.25 0.6801-1.63 2.3099-4.48 3.12-7.21 2.75-4.08-0.3901-8.16-0.8801-12.26-0.6501z"/>
	<path d="m1072.4 1719c1.21-3.5699 5.5699-0.7 7.91 0.15-1.51 3.52-7.09 4.23-7.91-0.15z"/>
	<path d="m1174.3 1720.3c2.7301-0.16 5.2301 1.83 8.0601 1.83-0.13 5.26-0.27 10.54 0.21 15.8 0.47 6.35 1.59 12.8 0.36 19.15-26.21-1.37-52.83 3.13-78.74-2.5 0.01-1.88 0.0901-3.74 0.17-5.5701-10.54-4.8099-22.44-3.16-33.49-5.6899-4.7001-1.26-9.9301-3.3301-12.19-7.9701 9.98-0.23 19.4 3.5701 29.22 4.6801 3.7699 0.5 7.58-0.15 11.06-1.66 5.09 8.66 15.59 12.29 25.23 10.77-1.13-1.0499-2.23-2.08-3.3099-3.12 2.47-4.99 9.0499-6.08 14.06-5.35 2.9601 0.27 4.0701 3.22 5.1 5.58 1.4501-1.74 2.7301-3.6 4.05-5.4199 0.3199 1.35 0.62 2.72 0.95 4.12 1.8201-2.6901 3.8-5.5701 6.9801-6.74 6.8999-2.8 14.32 0.46 21.39-0.75 1.66-4.5801-3.0199-7.5801-4.1399-11.56-0.6701-3.01 2.9399-4.4 5.0299-5.6z"/>
</g>
</svg>
