<?xml version='1.0' encoding='utf-8'?>
<svg xmlns="http://www.w3.org/2000/svg" version="1.1" width="600px" height="976px" viewBox="0 0 600 976"> <g id="layer1"> <g style="fill:rgb(0,0,0); fill-opacity:1.0; stroke-linejoin: miter"> <path d="M317.7406,555.982L317.21817,556.6432L317.57648,556.0235 M316.94482,556.8589L316.4262,557.37805 M316.24854,557.58417L316.04883,557.8299 M315.82703,558.3228L315.5471,559.04364 M324.53613,558.3125L324.62915,559.02924 M322.2811,554.9367L321.89337,557.93756Q321.83643,558.48987,319.60345,559.4621L318.98132,558.6167L322.25378,554.9383 M281.1797,492.65067L286.93884,494.12372Q287.81512,494.42004,288.68723,494.94168L285.39618,498.49075L282.12692,503.44818L272.14642,523.9678L269.0529,529.08215L266.20767,532.20044L262.68903,534.00146L260.28552,535.7955L259.77487,536.57166L255.91312,539.9324Q254.98935,542.8126,257.3609,545.42194Q255.07968,546.0436,255.18542,547.39294L257.20682,549.54803L247.0948,556.8437Q246.17255,557.8919,246.94638,558.6711L245.64159,559.2919L242.49004,559.03973L240.55618,559.4593L238.64165,559.0678L236.67062,559.4452L233.65831,559.1061L231.83891,559.4654L229.872,559.0462L225.92696,556.06903Q226.02711,554.8019,225.32277,554.14L225.36249,551.9128L225.07806,551.0609L225.48013,549.19745Q225.45123,548.0237,225.1054,547.07886Q225.82083,546.86664,226.48785,545.98694Q227.21033,545.30835,226.9753,544.0656L227.67941,543.4221L231.01416,541.7337L237.39511,539.3884L240.08727,538.77246L244.31944,538.3094L251.93942,536.32916L262.3205,531.89636L268.3226,528.62354L270.2211,526.2588Q270.5675,525.40485,270.969,524.57947L272.18552,518.47595L276.69907,504.11594Q278.79327,503.1126,278.86404,502.6234L278.3921,500.46533L279.31372,497.70837L280.3791,492.8603 M302.79318,478.6296L310.57678,479.95422L313.03647,481.47745L313.5744,482.3403L312.19595,487.1095L311.2892,494.1412L311.68445,501.11386L311.30304,517.3524L312.3021,526.18353L315.21674,540.6751L315.58627,548.76746L316.38647,551.6379Q316.26373,552.6286,315.90952,553.49286L313.60175,556.70654L312.2201,559.30597L310.24042,559.9785L305.53293,560.8629L299.30933,561.68353L298.4915,561.5202L298.0098,560.7568L296.4691,559.3026L284.51193,557.76807L281.68094,556.8087L281.06332,556.14233L280.78485,553.0508L279.13916,548.4718L278.8559,545.44025Q278.81952,544.5901,277.822,543.7099Q279.35425,542.83966,280.23343,541.0634L280.26926,539.9029L278.6601,538.94977L278.8734,537.0123L281.4755,530.755L283.56277,527.06287L288.88538,519.99097L296.2499,512.39215L303.06128,503.73654L306.99332,499.4699L308.80954,495.79645Q310.3224,494.37463,310.85803,492.5612L311.3926,489.50436Q311.20422,488.50073,310.71082,487.4147L307.11722,482.98724L302.60696,478.97586 M277.93542,421.95078L275.83508,422.2787L271.37347,423.94736L259.9421,430.37738L254.19543,434.24023L250.22403,437.3277L240.95158,442.56845L237.07188,445.87518L232.59204,451.5113L231.25552,454.18176Q230.7308,455.0733,231.54875,456.05453L232.42915,455.96988L234.20004,453.52618L235.32457,452.62573L231.01668,459.34042L231.0016,460.34222L232.37279,463.88L233.48845,463.91132L239.06303,457.59988L235.99353,463.88184L236.29346,464.8602Q237.13019,465.6063,237.88763,465.23288L241.86023,459.56992L242.796,460.75565L243.39911,460.67572L244.12563,458.58188Q245.71327,457.17877,246.4283,455.67703L247.99777,454.26035Q248.8237,453.05334,249.70195,449.407Q249.91208,448.5327,250.59914,447.98682L253.92012,445.41174L256.7231,444.16806L261.54428,441.37686L276.10266,436.3937Q276.9826,435.99738,278.0579,436.117L280.56827,439.05704L285.93002,443.21152L282.53635,444.86682L278.6347,446.29596L275.91046,446.82394Q274.17487,447.05743,273.07065,447.5356L265.29922,448.55557Q264.336,447.9024,263.45966,448.36835L260.2992,450.6992L257.27264,451.9666L252.87549,455.89243L249.56445,460.83862L247.98149,464.50677Q246.97537,468.3844,248.38138,472.17535L249.07037,474.15344L251.05127,477.6748L253.60573,480.1489L254.43477,483.16873L254.86122,487.12347L254.76689,490.06686L253.59013,495.04407L252.54756,496.30627L252.55046,497.5649L254.35721,499.22827L254.60472,500.20816L255.90863,512.21375L256.00342,517.3709L254.47345,519.78723L253.76392,520.3436L246.702,521.80804L242.05864,523.70856L223.94376,534.0122L217.5039,536.7554L214.57658,536.47925L210.98831,538.1694L206.82852,540.93787Q206.25003,541.8318,205.77293,542.77545L206.25146,544.611L206.7084,545.1022L207.66382,545.6545L207.8533,546.8373Q207.09807,547.40686,206.505,548.12067L206.80765,549.25635Q207.59549,549.56177,207.98125,550.539L200.90202,556.0622Q200.25337,556.8561,200.74889,557.9365L201.52867,558.8923L199.85817,559.1269L198.11057,561.30646Q198.57639,560.2991,198.35252,559.2033L197.38464,559.0561L195.22684,559.2109L193.81943,561.52234Q194.03459,560.6074,193.6847,559.57904L192.7822,559.3673L190.43056,559.49066L189.94911,559.8148L189.78683,562.04517L174.13103,561.81757L165.36757,560.67065L164.95493,561.2573L165.08398,564.3183L332.14938,564.2169L329.26447,563.67944Q328.46695,563.2263,328.52258,562.3503Q328.18597,561.91003,325.639,562.5525L322.21405,562.2957L325.39615,561.9568L326.01917,561.4452L327.09464,561.33655Q328.4094,560.90045,328.6675,559.7012L327.84503,550.38495L324.33948,545.7956L323.2169,540.88947L322.77356,528.82355L323.00894,522.8089L323.11606,517.52997L322.79,507.94427L322.1726,503.1138L322.47043,493.07562L324.36298,490.77286L326.57617,486.62393L327.6385,483.7396L328.1193,480.88943L327.5906,470.64484L328.34128,466.94824Q328.9585,466.315,329.88965,466.3274L333.06015,466.42307L336.7686,471.05176Q337.59967,471.67932,338.4129,471.8784L339.7787,471.79025L341.9863,470.3648L345.50693,469.4717Q345.596,468.68976,347.70917,467.81366L348.01285,466.71405Q348.7232,466.46906,349.26865,465.40005L351.1077,465.53992Q351.9673,465.28812,352.1079,463.99457Q352.13135,460.39172,352.7125,459.09537Q352.7055,458.17966,354.99393,457.7498L357.12427,452.2714Q358.04028,448.70142,356.82568,446.36768Q351.01306,435.57745,341.97433,436.18933L338.21265,437.5741L335.744,439.2046L332.10367,442.71368L330.23984,446.12616L327.67416,447.70126L325.86765,448.5136L325.00018,448.51395L322.9071,446.2865L321.81866,446.07773L319.25964,443.1107L315.18845,440.19272Q313.59827,438.96808,312.04517,437.54886L303.1515,431.8274L298.5973,429.42548L288.80972,426.66797L278.75626,422.10474L277.93542,421.95078L277.93542,421.95078L277.93542,421.95078 Z"/> </g> </g> </svg>